<svg xmlns="http://www.w3.org/2000/svg" xmlns:xlink="http://www.w3.org/1999/xlink" xmlns:sketch="http://www.bohemiancoding.com/sketch/ns" width="91px" height="66px" viewBox="0 0 91 66" version="1.1">
    <!-- Generator: Sketch 3.0.4 (8053) - http://www.bohemiancoding.com/sketch -->
    <title>tyranosaurus</title>
    <desc>Created with Sketch.</desc>
    <defs/>
    <g id="Page-1" stroke="none" stroke-width="1" fill="none" fill-rule="evenodd" sketch:type="MSPage">
        <g id="tyranosaurus" sketch:type="MSLayerGroup" transform="translate(1.000000, 0.000000)" fill="#000000">
            <path d="M49.138882,9.55657627 C49.3132919,9.8899322 48.7453416,10.113661 49.138882,10.2272034 C49.0019255,10.5376271 48.5217391,10.5051864 48.0655901,10.4962373 C47.9632919,9.72269492 48.5731677,9.66116949 49.138882,9.55657627" id="Fill-1" sketch:type="MSShapeGroup"/>
            <path d="M77.4475155,11.5701356 C77.6649689,12.1960169 76.7772671,12.1143559 76.5078261,12.241322 C74.1510559,13.3515763 71.4303727,14.5585932 68.9953416,15.8651695 C69.4358385,14.9148814 70.5398758,14.7985424 71.4102484,14.3891186 C73.3444099,13.4791017 75.418882,12.3475932 77.4475155,11.5701356" id="Fill-2" sketch:type="MSShapeGroup"/>
            <path d="M61.6164596,27.2758983 C61.1206211,27.5354237 60.6303727,27.8732542 60.1406832,28.215 C59.8203727,28.4392881 59.5391925,29.1048814 59.0673913,28.7519492 C58.9997516,28.1031356 59.7197516,28.2412881 60.0065217,27.9470847 C61.1435404,27.0711864 62.4717391,26.3865763 63.091677,24.9938644 C63.4153416,25.048678 63.3840373,24.748322 63.7630435,24.8590678 C63.8932919,24.2740169 64.2281366,23.8931186 64.4338509,23.3830169 L64.9704969,23.3830169 C65.2091925,22.6475085 65.9275155,22.4221017 65.9090683,21.7721695 C66.3037267,21.7593051 66.6777019,21.5271864 67.1170807,21.2352203 C67.772795,19.9180169 67.2059627,18.7132373 68.0562112,17.8792881 C68.1193789,18.2517966 67.59,18.7870678 68.3245342,18.6841525 C67.9097516,20.1042712 67.4748447,21.5031356 66.7145963,22.5770339 C66.3808696,22.5921356 66.2992547,22.8292881 66.0437888,22.5770339 C65.7760248,23.0703559 65.4115528,23.4663559 65.1046584,23.9199661 C64.5076398,23.6587627 64.174472,24.3998644 64.165528,25.1281017 C63.5701863,25.1135593 63.6993168,25.8250169 63.2263975,25.9329661 C62.7490062,28.0063729 61.293913,29.1004068 60.1406832,30.4970339 C59.9500621,30.5087797 59.760559,30.5194068 59.7376398,30.3627966 C58.7649689,31.3583898 58.3345342,32.8970847 57.3232919,33.8529661 C58.3099379,31.2168814 60.1127329,29.3957288 61.6164596,27.2758983 L61.6164596,27.2758983 Z M60.8114907,28.7519492 C60.6354037,28.9930169 60.296087,29.3878983 60.4090062,29.6921695 C61.203354,28.7424407 62.1061491,27.8995424 62.6897516,26.7389492 C62.0228571,27.2098983 61.3386335,28.0293051 60.8114907,28.7519492 L60.8114907,28.7519492 Z" id="Fill-3" sketch:type="MSShapeGroup"/>
            <path d="M54.1034161,18.8189492 C54.268323,18.8771186 54.3784472,18.990661 54.3717391,19.2211017 C53.6623602,19.899 53.3314286,20.955 53.0295652,22.0400847 C53.0642236,22.3191864 53.6187578,22.077 53.7009317,22.3091186 C53.7624224,22.7286102 53.4136025,22.7375593 53.0295652,22.7118305 C53.2699379,23.1425085 53.5723602,23.5105424 53.9692547,23.7851695 C54.087205,24.2169661 53.5265217,23.9697458 53.5662112,24.3221186 C53.1995031,23.7499322 52.8747205,23.134678 52.3593168,22.7118305 C52.8657764,21.3392542 53.2721739,19.8671186 54.1034161,18.8189492" id="Fill-4" sketch:type="MSShapeGroup"/>
            <path d="M82.6792547,20.0270847 C83.3450311,20.6110169 81.4768323,20.722322 81.3381988,21.3694576 C81.0844099,21.3543559 81.2448447,20.9253559 80.9351553,20.9661864 C81.2029193,20.3386271 82.2706211,20.5125763 82.6792547,20.0270847" id="Fill-5" sketch:type="MSShapeGroup"/>
            <path d="M16.0015528,23.1145424 C14.9304969,25.8462712 12.1175776,26.8357119 9.83012422,28.3497966 C9.80720497,28.6406441 10.3058385,28.4102034 10.5009317,28.4840339 C10.4768944,29.3101525 8.96254658,28.6451186 9.02459627,29.5579322 C7.43981366,29.5831017 7.1457764,30.8991864 6.20720497,31.5709322 C4.23055901,31.3734915 4.28813665,30.1597627 4.32950311,29.0209831 C4.7878882,28.9337288 4.7342236,28.3637797 4.99975155,28.0807627 C5.08360248,27.9923898 5.32118012,28.0416102 5.40279503,27.9470847 C5.83043478,27.4459322 6.84111801,26.5342373 7.54881988,25.9329661 C7.79142857,25.7276949 8.13689441,25.7640508 8.48795031,25.5308136 C9.00726708,25.1862712 9.21913043,24.9468814 9.96428571,24.5911525 C10.4075776,24.3797288 10.7731677,23.9037458 11.0375776,23.7851695 C12.4479503,23.1531356 14.308323,23.4674746 15.5985093,22.7118305 C15.7919255,22.7867797 15.926087,22.9215763 16.0015528,23.1145424 L16.0015528,23.1145424 Z M6.07360248,28.0807627 C5.94559006,28.6691695 5.53360248,28.9734407 5.13391304,29.2888983 C5.46652174,29.4192203 4.94944099,29.8045932 5.13391304,30.2291186 C5.35639752,30.5434576 5.91708075,30.5194068 6.47608696,30.4970339 L6.47608696,29.9606441 C7.02950311,30.2386271 6.80254658,29.6295254 7.01217391,29.4236949 C7.51583851,28.9292542 8.76857143,28.4096441 8.7568323,28.0807627 C9.36335404,27.9722542 9.60652174,27.4996271 9.96428571,27.1411017 C10.4668323,26.8390678 11.1365217,26.7042712 11.4395031,26.202 C12.6642857,25.771322 13.6682609,25.1202712 14.3916149,24.1884407 C10.3270807,24.1940339 8.65006211,26.5873729 6.07360248,28.0807627 L6.07360248,28.0807627 Z" id="Fill-6" sketch:type="MSShapeGroup"/>
            <path d="M73.6904348,22.7118305 C74.245528,22.6704407 73.9403106,23.6498136 73.4226708,23.3830169 C73.4019876,23.0491017 73.6334161,22.9674407 73.6904348,22.7118305" id="Fill-7" sketch:type="MSShapeGroup"/>
            <path d="M22.5749068,23.3830169 C22.8488199,23.6173729 22.8381988,23.2828983 23.1115528,23.5172542 C22.953354,24.3433729 22.2009317,24.5749322 21.3674534,24.7253898 C21.5306832,23.7415424 22.4860248,24.3763729 22.5749068,23.3830169" id="Fill-8" sketch:type="MSShapeGroup"/>
            <path d="M17.8792547,29.1552203 C17.7970807,29.1938136 17.3627329,29.4891356 17.3426087,29.1552203 C17.7177019,28.1680169 19.0749689,28.1020169 19.623354,27.2758983 C20.0761491,26.5946441 20.6865839,25.9491864 21.2332919,25.262339 C22.6548447,25.1225085 23.8036025,24.717 24.7214907,23.7851695 C25.3403106,23.7342712 26.1463975,23.8690678 26.3314286,23.3830169 C27.9486335,23.9781356 26.2453416,25.6840678 26.6003106,27.1411017 C26.823913,28.0617458 27.6674534,28.1657797 28.075528,29.0209831 C28.2873913,30.4852881 27.4840994,30.9344237 27.002236,31.7057288 C27.3219876,32.5821864 26.7730435,34.0218814 26.1978261,34.7926271 C24.8740994,35.1863898 23.9975776,34.4285085 22.8437888,34.2562373 C22.2780745,32.6739153 20.4026087,32.4026441 19.3555901,31.3030169 C19.0883851,31.3046949 19.1845342,31.6688136 18.8189441,31.5709322 C18.8167081,30.9618305 18.266646,30.6514068 17.4767702,30.4970339 C17.64,29.7967627 17.5919255,29.5568136 17.8792547,29.1552203 L17.8792547,29.1552203 Z M21.5016149,26.202 C20.5714286,29.4997627 23.6370186,31.5765254 26.1978261,32.6448305 C25.5320497,31.0552373 27.2890062,30.7425763 27.1363975,29.4236949 C27.0665217,28.8207458 26.0211801,28.2233898 25.7947826,27.5443729 C25.4174534,26.4134237 25.8054037,25.9133898 26.1978261,24.7253898 C24.121677,24.7063729 23.5034161,26.1466271 21.5016149,26.202 L21.5016149,26.202 Z M19.2208696,29.0209831 C19.9554037,28.9918983 20.5054658,28.0729322 20.428323,27.6780508 C20.1063354,28.2066102 19.5428571,28.4924237 19.2208696,29.0209831 L19.2208696,29.0209831 Z M20.2941615,29.0209831 C20.6675776,29.236322 20.6653416,28.4415254 20.428323,28.4840339 C20.4585093,28.7374068 20.2773913,28.7799153 20.2941615,29.0209831 L20.2941615,29.0209831 Z M18.6842236,29.9606441 C19.2393168,30.2341525 19.8631677,29.9315593 20.0263975,29.4236949 C19.6904348,28.9767966 18.9469565,29.5439492 18.6842236,29.9606441 L18.6842236,29.9606441 Z M19.623354,30.4970339 C19.982236,30.1401864 20.9431677,30.3862881 20.9649689,29.6921695 C20.5552174,29.9119831 19.5730435,30.262678 19.623354,30.4970339 L19.623354,30.4970339 Z M20.2941615,30.7660678 C20.7732298,30.6631525 21.2159627,31.1816441 21.3674534,30.6318305 C21.2634783,30.6021864 21.2114907,30.5194068 21.2332919,30.3627966 C20.9403727,30.5177288 20.3657143,30.3896441 20.2941615,30.7660678 L20.2941615,30.7660678 Z M22.0382609,31.3030169 C21.7721739,31.301339 21.867764,30.936661 21.5016149,31.0339831 C21.4026708,31.3321017 21.9963354,31.5877119 22.0382609,31.3030169 L22.0382609,31.3030169 Z M23.1115528,32.1078814 C23.2412422,31.780678 22.5089441,31.6632203 22.5749068,31.8399661 C22.7856522,31.8975763 22.6895031,32.2622542 23.1115528,32.1078814 L23.1115528,32.1078814 Z M22.9773913,32.7796271 C23.3200621,32.7197797 23.5945342,32.5916949 23.7823602,32.3769153 C23.3826708,32.3797119 22.9650932,32.3640508 22.9773913,32.7796271 L22.9773913,32.7796271 Z M23.3804348,33.3165763 C23.9193168,33.2735085 24.3,33.0738305 24.4537267,32.6448305 C23.9517391,32.7248136 23.4519876,32.8064746 23.3804348,33.3165763 L23.3804348,33.3165763 Z M24.5873292,33.8529661 C25.3078882,33.8814915 25.2995031,33.3999153 25.7947826,33.8529661 C26.1559006,33.0184576 24.8522981,33.3417458 24.5873292,33.8529661 L24.5873292,33.8529661 Z" id="Fill-9" sketch:type="MSShapeGroup"/>
            <path d="M77.85,24.1884407 C78.0132298,24.5078136 78.4341615,25.0134407 78.118323,25.3960169 C77.5654658,25.4127966 77.7683851,24.6722542 77.313354,24.5911525 C77.0981366,24.0631525 77.8924845,24.5441695 77.85,24.1884407" id="Fill-10" sketch:type="MSShapeGroup"/>
            <path d="M72.0804969,24.9938644 L72.0804969,25.262339 C72.0480745,25.8127119 71.6327329,25.460339 71.4102484,25.5308136 C69.835528,26.0319661 68.4050311,27.2647119 67.1170807,27.5443729 C67.6509317,26.8513729 68.580559,26.4570508 69.3978261,26.0677627 C70.2486335,25.6622542 71.1648447,25.2847119 72.0804969,24.9938644" id="Fill-11" sketch:type="MSShapeGroup"/>
            <path d="M43.6382609,30.0948814 C43.6846584,29.932678 43.9954658,29.9858136 44.0413043,30.0948814 C44.1626087,30.3846102 43.5499379,30.4053051 43.6382609,30.0948814" id="Fill-12" sketch:type="MSShapeGroup"/>
            <path d="M49.0052795,33.9877627 C48.8918012,33.2013559 49.9639752,32.4429153 50.6146584,31.9742034 C50.217764,32.784661 49.5072671,33.2818983 49.0052795,33.9877627" id="Fill-13" sketch:type="MSShapeGroup"/>
            <path d="M40.6872671,33.4508136 C40.862795,33.4983559 40.8980124,33.6874068 41.0891925,33.7187288 C40.7073913,34.1947119 40.1070186,34.7674576 39.4798137,34.2562373 C39.6,34.0185254 39.8034783,33.8641525 39.8817391,33.5850508 C40.1802484,33.642661 40.6095652,33.8937966 40.6872671,33.4508136" id="Fill-14" sketch:type="MSShapeGroup"/>
            <path d="M49.9438509,33.4508136 C49.5212422,34.6539153 48.7498137,34.6774068 47.6631056,35.1958983 C47.9051553,34.0957119 49.234472,34.0834068 49.9438509,33.4508136" id="Fill-15" sketch:type="MSShapeGroup"/>
            <path d="M13.7202484,33.5850508 C13.9371429,33.5475763 13.951677,33.7114576 14.1227329,33.7187288 C13.6431056,34.1784915 13.7202484,35.195339 12.9152795,35.3301356 C13.0645342,34.6287458 13.6056522,34.3205593 13.7202484,33.5850508" id="Fill-16" sketch:type="MSShapeGroup"/>
            <path d="M78.9232919,34.5247119 C79.1396273,34.486678 79.1541615,34.6511186 79.3252174,34.6589492 C79.6600621,36.6059492 78.5632919,37.9237119 78.2519255,39.8936441 C77.6442857,40.1358305 77.672236,41.0139661 76.9108696,41.1017797 C76.7577019,40.4194068 77.5274534,40.1839322 77.85,39.6257288 C78.3503106,38.7598983 78.9188199,37.1378644 79.0574534,36.1355593 C79.1340373,35.5779153 79.0546584,34.9755254 78.9232919,34.5247119" id="Fill-17" sketch:type="MSShapeGroup"/>
            <path d="M27.538882,34.9268644 C27.7669565,35.457661 28.0050932,36.0796271 28.7463354,36.4040339 C28.5389441,36.7731864 27.9413665,36.4168983 27.807764,36.2697966 C27.544472,36.4985593 27.7647205,37.2111356 27.4047205,37.3436949 C27.0575776,37.1138136 27.1995652,35.3340508 27.538882,34.9268644" id="Fill-18" sketch:type="MSShapeGroup"/>
            <path d="M21.9040994,35.061661 C22.2668944,35.4962542 21.599441,35.6830678 21.3674534,36.1355593 C21.2103727,36.4415085 21.2550932,36.9029492 21.0996894,37.2088983 C21.0823602,37.2418983 20.8442236,37.1758983 20.8308075,37.2088983 C20.7363354,37.4471695 20.9236025,38.0366949 20.428323,37.8806441 C20.7380124,36.7586441 21.3143478,35.9028814 21.9040994,35.061661" id="Fill-19" sketch:type="MSShapeGroup"/>
            <path d="M45.3823602,35.8670847 C45.088882,36.4672373 43.0311801,37.3996271 42.6991304,36.2697966 C43.6857764,36.6042712 44.4940994,36.0304068 45.3823602,35.8670847" id="Fill-20" sketch:type="MSShapeGroup"/>
            <path d="M40.5525466,36.4040339 C40.6414286,37.0125763 38.9073913,36.7284407 38.8084472,36.2697966 C39.5038509,36.1674407 39.9477019,36.0662034 40.5525466,36.4040339" id="Fill-21" sketch:type="MSShapeGroup"/>
            <path d="M29.0146584,36.5377119 C29.3908696,36.8335932 29.9101863,37.5489661 29.8196273,37.8806441 C29.3260248,37.7922712 29.1516149,37.3856441 28.8810559,37.074661 C28.8637267,36.8347119 29.0448447,36.7916441 29.0146584,36.5377119" id="Fill-22" sketch:type="MSShapeGroup"/>
            <path d="M22.9773913,36.6725085 L23.3804348,36.6725085 C23.2507453,37.7654237 23.8226087,39.0082373 23.1115528,39.7599661 C22.7101863,39.485339 22.8219876,38.7078814 22.9773913,38.1485593 C22.5385714,38.2022542 22.6509317,38.8068814 22.5749068,39.2230169 C21.9415528,39.1760339 22.8734161,38.396339 22.0382609,38.5518305 C22.142795,38.4321356 22.1824845,38.248678 22.1729814,38.0148814 C22.6436646,38.245322 22.8052174,37.1714237 22.9773913,36.6725085" id="Fill-23" sketch:type="MSShapeGroup"/>
            <path d="M31.1618012,37.2088983 C32.2401242,37.0366271 32.9209938,38.0394915 33.844472,38.4175932 C34.3520497,38.6251017 35.1978261,38.6195085 35.8568944,38.8197458 C36.8597516,39.1251356 38.0023602,39.3119492 39.3450932,38.9545424 C38.7950311,39.7012373 37.2063354,39.4092712 36.2599379,39.7599661 C35.6517391,38.9808305 34.0697516,39.1765932 33.3083851,38.5518305 C33.1826087,38.6502712 33.1043478,38.7956949 33.0395031,38.9545424 C32.758882,38.8326102 32.6308696,38.5585424 32.6370186,38.1485593 C32.2641615,37.7167627 31.136646,38.0400508 31.1618012,37.2088983" id="Fill-24" sketch:type="MSShapeGroup"/>
            <path d="M81.6059627,43.2495763 C81.1861491,44.2630678 80.1480745,45.3694068 79.4599379,45.6664068 C79.5158385,45.0511525 80.0916149,44.9560678 80.3985093,44.5925085 C80.6729814,44.0158475 80.9211801,43.4145763 81.6059627,43.2495763" id="Fill-25" sketch:type="MSShapeGroup"/>
            <path d="M82.0090062,45.3979322 C82.2253416,45.3598983 82.2398758,45.5248983 82.4114907,45.5316102 C82.3662112,46.2027966 81.896646,46.4488983 81.3381988,46.6055085 C81.1196273,45.7603729 82.2119255,46.2274068 82.0090062,45.3979322" id="Fill-26" sketch:type="MSShapeGroup"/>
            <path d="M75.9711801,47.1424576 C75.5368323,47.8136441 74.1940994,47.7168814 73.2885093,47.5457288 L73.2885093,47.1424576 C74.1096894,47.2224407 74.8056522,47.3633898 75.9711801,47.1424576" id="Fill-27" sketch:type="MSShapeGroup"/>
            <path d="M75.0326087,48.7538644 C76.3887578,48.8316102 75.9504969,50.7349831 74.8978882,50.901661 C74.9370186,50.1046271 75.5267702,50.2114576 75.4345342,49.5592881 C75.4144099,49.3109492 74.9806211,49.4765085 74.8978882,49.2908136 C75.0024224,49.1711186 75.0426708,48.987661 75.0326087,48.7538644" id="Fill-28" sketch:type="MSShapeGroup"/>
            <path d="M45.2481988,50.3647119 C45.4650932,50.326678 45.4790683,50.491678 45.6512422,50.4983898 C45.454472,51.9034068 46.4282609,52.1372034 46.4556522,53.3173729 C45.9463975,53.6585593 45.2498758,53.8112542 44.5779503,53.9885593 C46.172236,56.068678 49.7291925,56.8796949 49.8096894,60.0292373 C49.4569565,60.0695085 49.7045963,59.5090678 49.2730435,59.6270847 C49.1450311,56.6196102 45.1459006,56.331 44.0413043,53.854322 C44.5399379,53.3699492 45.6551553,53.5013898 46.0531677,52.9152203 C45.8301242,52.0879831 44.7199379,51.5040508 45.2481988,50.3647119" id="Fill-29" sketch:type="MSShapeGroup"/>
            <path d="M57.4574534,51.5722881 C57.7431056,50.8295085 58.3440373,50.4016271 59.3357143,50.3647119 C58.7336646,50.7920339 58.2126708,51.299339 57.4574534,51.5722881" id="Fill-30" sketch:type="MSShapeGroup"/>
            <path d="M58.5307453,51.1695763 C58.7018012,51.5079661 58.2109938,52.1366441 57.5910559,52.1097966 C57.8873292,51.778678 57.9650311,51.2311017 58.5307453,51.1695763" id="Fill-31" sketch:type="MSShapeGroup"/>
            <path d="M74.3612422,51.3043729 C74.517764,51.2825593 74.6004969,51.3334576 74.6301242,51.4386102 C74.3522981,52.5488644 73.1828571,53.4790169 72.2152174,53.4521695 C71.7473292,53.3386271 71.9340373,52.5695593 71.5438509,52.3782712 C70.3034161,52.6601695 69.0495652,53.0399492 68.1898137,53.9885593 C67.8393168,54.3767288 67.8823602,55.078678 67.2512422,55.1972542 C67.5301863,53.5455763 69.7108696,51.9352881 71.8127329,52.1097966 C72.2375776,52.221661 72.2263975,52.7692373 72.4835404,53.0494576 C73.4718634,52.8302034 73.982236,52.1321695 74.3612422,51.3043729" id="Fill-32" sketch:type="MSShapeGroup"/>
            <path d="M11.7078261,51.7065254 L12.1108696,51.7065254 C11.9353416,52.023661 12.0538509,52.635 11.8419876,52.9152203 C11.2712422,52.7423898 11.8554037,52.2479492 11.7078261,51.7065254" id="Fill-33" sketch:type="MSShapeGroup"/>
            <path d="M25.7947826,51.9755593 C26.2464596,51.926339 26.0183851,52.5572542 26.1978261,52.7804237 C25.6449689,52.914661 25.556646,52.2294915 25.7947826,51.9755593" id="Fill-34" sketch:type="MSShapeGroup"/>
            <path d="M37.7351553,53.7206441 C37.8721118,53.807339 37.8737888,54.0293898 38.1376398,53.9885593 C38.1214286,54.3308644 37.9425466,54.5092881 37.6009938,54.5255085 C37.7183851,54.0506441 37.617764,54.1960678 37.7351553,53.7206441" id="Fill-35" sketch:type="MSShapeGroup"/>
            <path d="M34.917764,54.3918305 C34.9915528,54.6888305 34.6617391,54.5825593 34.649441,54.7945424 C34.5040994,54.7609831 34.558882,54.5271864 34.381118,54.5255085 C34.3240994,54.3096102 34.8814286,54.0752542 34.917764,54.3918305" id="Fill-36" sketch:type="MSShapeGroup"/>
            <path d="M36.5277019,54.2575932 C36.5159627,54.6233898 36.7513043,54.5271864 36.5277019,54.7945424 C36.0111801,54.8996949 36.0111801,54.151322 36.5277019,54.2575932" id="Fill-37" sketch:type="MSShapeGroup"/>
            <path d="M54.2370186,56.8081017 C54.0290683,58.4044068 54.6193789,58.642678 55.3103106,59.4922881 C54.1201863,59.4760678 53.9211801,58.4664915 53.8350932,57.3444915 C53.0815528,57.6884746 52.2950311,58.2472373 51.4196273,57.7477627 C50.7381988,56.3265254 49.7638509,55.1978136 48.1997516,54.6603051 C48.3221739,54.1502034 48.7391925,54.5618644 49.138882,54.5255085 C49.9880124,55.4215424 51.1731056,55.9808644 51.5537888,57.3444915 C51.7097516,57.322678 51.7924845,57.3741356 51.8226708,57.4792881 C53.1424845,57.7969831 53.4141615,56.5647966 54.2370186,56.8081017" id="Fill-38" sketch:type="MSShapeGroup"/>
            <path d="M29.8196273,54.6603051 C30.4440373,54.5400508 30.507764,55.3717627 29.8196273,55.1972542 L29.8196273,54.6603051" id="Fill-39" sketch:type="MSShapeGroup"/>
            <path d="M28.8810559,55.0624576 C28.7642236,55.259339 28.6798137,55.4881017 28.3444099,55.4657288 C28.2734161,55.3577797 28.2040994,55.2470339 28.2096894,55.0624576 C28.4651553,54.811322 28.5467702,55.0479153 28.8810559,55.0624576" id="Fill-40" sketch:type="MSShapeGroup"/>
            <path d="M32.5028571,54.9282203 C32.6208075,55.3594576 32.1551553,55.2067627 32.1003727,55.4657288 C31.9550311,55.4321695 32.0092547,55.1989322 31.8320497,55.1972542 C31.8521739,54.9036102 32.1702484,54.9086441 32.5028571,54.9282203" id="Fill-41" sketch:type="MSShapeGroup"/>
            <path d="M26.1978261,55.0624576 C26.551118,55.0221864 26.637764,55.2487119 26.6003106,55.5994068 L26.0636646,55.5994068 C26.006646,55.3191864 26.1553416,55.2442373 26.1978261,55.0624576" id="Fill-42" sketch:type="MSShapeGroup"/>
            <path d="M24.5873292,55.4657288 C24.5856522,55.7325254 24.2217391,55.636322 24.3190062,56.002678 C24.026646,56.0267288 23.8924845,55.8924915 23.9170807,55.5994068 C24.0724845,55.4869831 24.2759627,55.422661 24.5873292,55.4657288" id="Fill-43" sketch:type="MSShapeGroup"/>
            <path d="M11.0375776,55.5994068 L11.5742236,55.5994068 C11.6888199,56.0278475 11.3629193,56.0149831 11.3053416,56.2711525 C11.0124224,56.2510169 11.0168944,55.9327627 11.0375776,55.5994068" id="Fill-44" sketch:type="MSShapeGroup"/>
            <path d="M22.3065839,55.8684407 C22.323913,56.1089492 22.142795,56.1514576 22.1729814,56.4053898 C21.1449689,56.5245254 21.6570186,55.3600169 22.3065839,55.8684407" id="Fill-45" sketch:type="MSShapeGroup"/>
            <path d="M15.8668323,56.5396271 C16.198882,56.7275593 16.1038509,57.0016271 16.0015528,57.3444915 C15.3765839,57.3914746 15.6326087,56.7146949 15.8668323,56.5396271" id="Fill-46" sketch:type="MSShapeGroup"/>
            <path d="M18.9525466,56.8081017 C18.9352174,57.3942712 18.1213043,57.1917966 18.1475776,56.6733051 C18.356087,56.4529322 18.7742236,56.6162542 18.9525466,56.8081017" id="Fill-47" sketch:type="MSShapeGroup"/>
            <path d="M14.3916149,57.0765763 C13.9159006,57.121322 14.0612422,57.4457288 13.586087,57.2102542 C13.4837888,56.6906441 14.4424845,56.3964407 14.3916149,57.0765763" id="Fill-48" sketch:type="MSShapeGroup"/>
            <path d="M67.1170807,56.942339 C66.7000621,57.9899492 64.8290683,56.9524068 63.7630435,57.4792881 C63.0408075,57.9205932 62.7534783,58.7953729 62.0183851,59.2243729 C61.922795,59.665678 61.9552174,60.2339492 61.4817391,60.2982712 C61.3526087,58.9475085 62.8652795,58.1124407 63.4947205,57.0765763 C64.9308075,56.791322 65.9593789,56.9098983 67.1170807,56.942339" id="Fill-49" sketch:type="MSShapeGroup"/>
            <path d="M61.8847826,57.3444915 C61.4481988,58.3031695 61.736087,59.2198983 61.0798137,60.0292373 C61.195528,59.8866102 60.0439752,60.3530847 60.1406832,60.8352203 C59.0232298,60.5617119 58.1562112,60.6623898 57.4574534,60.1640339 C57.9532919,58.2561864 60.3503106,56.9814915 61.8847826,57.3444915 L61.8847826,57.3444915 Z M58.7990683,59.6270847 C60.0462112,59.9140169 60.5381366,59.2886949 60.6773292,58.1504746 C59.8119876,58.4032881 59.130559,58.8401186 58.7990683,59.6270847 L58.7990683,59.6270847 Z" id="Fill-50" sketch:type="MSShapeGroup"/>
            <path d="M60.9450932,60.4325085 C61.0647205,60.5147288 61.1854658,60.5947119 61.2139752,60.4325085 C61.5728571,60.588 61.2257143,61.1445254 60.8114907,60.9694576 C60.7941615,60.7283898 60.9752795,60.6858814 60.9450932,60.4325085" id="Fill-51" sketch:type="MSShapeGroup"/>
            <path d="M2.04875776,41.7735254 C1.54285714,41.8764407 1.40701863,41.6096441 0.975465839,41.6387288 C0.958695652,41.2785254 0.864782609,40.6783729 0.706583851,40.162678 C0.536645963,39.6089492 0.365590062,38.0898305 0.438819876,37.7458475 C0.154285714,37.7038983 0.409192547,37.1098983 0.706583851,37.2088983 C-0.481304348,37.092 -0.370062112,34.1717797 0.0357763975,33.5850508 C-0.0111801242,33.3747458 -0.200124224,33.7025085 -0.231987578,33.4508136 C-0.165465839,32.8243729 -0.322546584,32.0155932 -0.231987578,31.5709322 C-0.173291925,31.2812034 0.0408074534,31.3902712 0.0357763975,31.4366949 C0.0704347826,31.1022203 -0.264409938,31.3007797 -0.097826087,30.7660678 C-0.0329813665,30.5557627 0.143664596,30.5535254 0.304099379,30.2291186 C0.623291925,29.5842203 0.52378882,28.3727288 1.3773913,28.3497966 C0.954223602,28.2787627 1.65354037,27.6942712 1.64627329,26.8731864 C2.02583851,26.8508136 2.2052795,26.6265254 2.58540373,26.6047119 C2.21478261,25.955339 2.88614907,25.7590169 3.12204969,25.262339 C3.24782609,24.996661 3.0147205,24.8568305 3.12204969,24.7253898 C3.84763975,23.8315932 5.46093168,23.5625593 6.61024845,22.8460678 C8.25987578,21.8169153 9.69484472,20.5209661 11.7078261,19.7586102 C11.9549068,19.5583729 12.1790683,19.3340847 12.3786335,19.0874237 C15.4145963,17.9078136 19.1644099,17.0369492 22.7096273,15.9999661 C22.9801863,15.9205424 23.4374534,16.2880169 23.5140373,15.7314915 C25.9759006,15.9160678 29.5093789,14.8404915 31.9662112,14.6575932 C31.8857143,14.337661 32.6504348,14.3432542 32.9059006,13.9864068 C33.925528,13.9931186 34.6684472,13.8359492 35.4544099,13.5831356 C37.3963975,12.9589322 38.1896273,11.6428475 39.6139752,10.3614407 C40.0656522,10.4017119 40.5296273,10.429678 40.8208696,10.6304746 C43.2452795,9.65557627 45.3695031,8.37976271 47.1264596,6.73759322 C48.9778882,6.17547458 51.2899379,5.02774576 53.1637267,4.05284746 C55.1638509,4.07186441 57.326646,3.24742373 59.2009938,2.71047458 C59.8991925,2.27476271 60.1658385,1.38544068 60.9450932,1.09962712 C61.6309938,0.847932203 63.3935404,1.0000678 64.2991304,0.831152542 C65.2824224,0.647135593 66.2299379,0.663355932 67.1170807,0.15940678 C67.683354,0.244983051 68.2490683,1.06271186 69.5319876,0.831152542 C69.6510559,1.20366102 70.0300621,1.31720339 70.0686335,1.77081356 C71.8764596,2.5689661 74.0582609,2.31335593 75.3009317,3.78437288 C76.0075155,3.75416949 76.4631056,4.06738983 76.9108696,4.45555932 C77.4592547,4.93098305 78.746646,5.53672881 79.5940994,6.06640678 C80.3940373,6.56588136 81.3381988,6.98872881 82.0090062,7.54245763 C82.261677,7.75164407 82.3321118,8.14149153 82.5456522,8.34844068 C83.1901863,8.97432203 84.057205,9.18798305 84.423354,9.95928814 L84.423354,10.6304746 C84.6637267,11.1959492 85.7319876,10.9319492 86.0332919,11.435339 C86.0746584,11.9247458 86.0120497,12.3095593 85.8996894,12.6440339 C86.8796273,13.7660339 88.6321118,14.1156102 89.3873292,15.4630169 C89.2431056,17.4005085 89.4354037,20.2709492 87.9121118,21.5031356 C88.0926708,22.0177119 88.0054658,22.5015254 88.0462733,23.3830169 C87.7578261,23.8545254 87.1300621,23.9876441 86.9729814,24.5911525 C86.2680745,24.7209153 85.4591925,25.0772034 84.5580745,24.9938644 C84.06,24.948 83.5764596,24.6213559 83.0822981,24.5911525 C82.168882,24.5352203 81.2795031,25.0363729 80.6673913,24.3221186 C80.1184472,24.6235932 79.6947205,25.0497966 79.3252174,25.5308136 C79.8227329,27.5253559 80.4113665,30.2403051 81.4718012,32.3769153 C81.270559,33.1890508 81.8625466,34.2914746 82.4114907,34.7926271 C82.6009938,36.5718305 83.9364596,37.2049831 84.692236,38.4175932 C85.0153416,38.3627797 84.9834783,38.6625763 85.3630435,38.5518305 C86.1808696,39.9999153 87.4341615,41.7673729 86.3021739,43.3843729 L86.3021739,44.8604237 C85.8913043,45.5506271 85.4513665,46.1244915 84.8258385,46.7403051 C84.4786957,47.0820508 84.1891304,47.4142881 83.8872671,47.6799661 C83.2930435,48.2034915 81.5467081,48.1615424 80.8015528,48.7538644 C80.2207453,49.2147458 79.2519876,50.4340678 78.7885714,51.1695763 C78.5549068,51.5415254 78.5185714,52.1254576 78.2519255,52.5125085 C78.1328571,52.6858983 77.5548447,53.1428644 77.313354,53.4521695 C76.6151553,54.3442881 75.8571429,55.5686441 74.7642857,56.1363559 C74.6608696,56.7348305 74.0437267,57.0463729 73.6904348,57.4792881 C72.6702484,58.7293729 71.6114907,60.6187627 69.934472,61.3721695 C69.4112422,62.2357627 68.4128571,62.6239322 67.6531677,63.2514915 C67.3009938,63.1122203 66.8303106,63.0909661 66.3121118,63.1172542 C64.35,64.2431695 62.7579503,65.5665254 60.5431677,65.5335254 C60.3352174,65.5301695 60.0573913,65.305322 59.7376398,65.2650508 C59.4654037,65.2303729 59.1568323,65.4339661 58.9332298,65.3992881 C58.503913,65.3327288 58.0382609,65.0379661 57.5910559,64.9960169 C56.4914907,64.893661 55.8995031,64.9233051 55.1767081,64.1911525 C53.3224845,64.2655424 52.0300621,63.9864407 50.7493789,63.7884407 C50.5207453,63.738661 50.4961491,63.8924746 50.4804969,64.0563559 C49.6168323,63.8639492 49.2204969,63.7202034 48.602236,64.0563559 C48.4803727,63.8208814 48.1321118,63.8113729 47.9319876,63.6542034 C45.5791304,63.7593559 44.0217391,63.6430169 42.028323,63.9221186 C41.3765217,64.0138475 40.7392547,64.3438475 40.0164596,64.4596271 C38.6854658,64.6721695 37.2270186,64.5245085 35.8568944,64.7281017 C35.2626708,64.8159153 34.6690062,65.1968136 34.112795,65.2650508 C32.6247205,65.4473898 31.6296894,65.4725593 30.0885093,65.5335254 C27.6506832,65.6291695 24.5588199,66.1292034 21.6363354,65.9362373 C20.9006832,65.8875763 20.158323,65.638678 19.623354,65.1302542 C19.2024224,65.0642542 19.2689441,65.5933729 18.9525466,65.2650508 C18.1576398,65.0312542 17.7881366,64.3718136 16.6723602,64.4596271 C15.1854037,62.6966441 13.1019876,62.3151864 12.244472,60.0292373 C10.1862112,59.9928814 10.4461491,58.210322 9.02459627,57.7477627 C9.08832298,57.1532034 8.84012422,57.0799322 9.02459627,56.6733051 C8.1268323,54.9835932 8.20341615,51.909 10.2320497,50.6326271 C10.5763975,50.6466102 10.4478261,51.1332203 10.6345342,51.3043729 C11.0951553,50.8351017 11.3651553,49.9379492 11.8419876,49.4244915 C11.9057143,49.3562542 12.1768323,49.4899322 12.244472,49.4244915 C12.6195652,49.0654068 12.8867702,48.082678 13.586087,48.4853898 C13.9254037,49.368 12.961677,50.5627119 13.318323,51.7065254 C14.2624845,50.8697797 14.7689441,49.8009153 16.0015528,49.5592881 C16.4392547,49.9849322 16.3375155,50.2785763 16.2693168,51.0358983 C16.6293168,51.1220339 17.1642857,50.2343898 17.6109317,49.9614407 C18.0240373,49.8618814 17.8686335,50.3300339 18.2822981,50.2304746 C17.9189441,50.9542373 18.0229193,52.0773559 18.1475776,52.6467458 C18.7004348,52.1148305 18.8161491,51.2629831 19.2208696,50.6326271 C19.623913,50.0056271 20.158882,49.4630847 20.696646,49.022339 C21.692795,49.6051525 20.8872671,50.4950339 21.3674534,51.9755593 C21.7855901,50.5146102 22.1031056,48.9524237 23.6481988,48.6196271 C23.9221118,49.3898136 23.8086335,50.6359831 24.0506832,51.4386102 C24.8059006,50.3143729 25.11,48.739322 26.734472,48.4853898 C27.181118,49.4054746 26.4795652,50.3758983 27.1363975,51.5722881 C27.5998137,50.4698644 28.3695652,49.6739492 28.8810559,48.6196271 C29.3931056,48.5547458 29.7368944,48.657661 29.9543478,48.8875424 C29.7262733,49.6426271 29.9454037,50.0833729 30.0885093,51.0358983 C30.7380745,49.7617627 31.0214907,48.1212712 31.9662112,47.1424576 C32.9651553,47.6301864 32.31,49.1168644 32.7717391,49.9614407 C33.2748447,49.302 33.5459627,48.4104407 33.9791925,47.6799661 L34.649441,47.6799661 C34.7869565,48.6162712 34.7897516,49.6873729 35.186087,50.3647119 C35.909441,49.6113051 36.2386957,48.4641356 37.1985093,47.9484407 C37.2024224,48.0787627 37.3628571,48.0524746 37.4668323,48.082678 C37.7234161,48.7902203 37.0906211,49.7270847 37.4668323,50.6326271 C38.3159627,50.0951186 39.0298137,49.4216949 39.4798137,48.4853898 C39.873354,48.1179153 40.4714907,47.9562712 40.6872671,47.4114915 C42.026087,47.0059831 43.0898758,46.3247288 44.4432298,45.9348814 C44.5371429,45.2234237 44.8663975,44.7468814 45.1145963,44.1897966 C45.6037267,44.0449322 46.0419876,44.1847627 46.4556522,44.0555593 C47.1678261,43.8323898 47.1734161,43.3239661 47.6631056,42.8474237 C47.8017391,42.7120678 48.0292547,42.8351186 48.1997516,42.7126271 C48.7078882,42.3479492 48.782795,41.5906271 49.2730435,41.3708136 C44.7926087,41.7567458 41.5928571,42.9878136 37.1985093,43.6528475 C36.9167702,43.5320339 36.6020497,43.4442203 36.3935404,43.2495763 C35.1475155,43.7059831 33.4995652,43.7210847 32.3686957,43.6528475 C31.3999379,44.2496441 31.0432919,45.458339 30.4904348,46.4718305 C29.4775155,46.0982034 28.706087,45.4829492 28.7463354,44.0555593 C27.8636646,44.4700169 27.9531056,45.8565763 27.1363975,46.3375932 C26.4745342,45.970678 26.3638509,45.0522712 25.7947826,44.5925085 C25.108882,45.2681695 25.2380124,46.2665593 24.8556522,47.0087797 C23.4122981,46.5876102 23.3826708,44.6059322 23.2462733,43.2495763 C22.496646,44.0247966 22.1008696,45.2374068 22.3065839,46.6055085 C20.3304969,47.0182881 20.1801242,44.2681017 20.0263975,43.1158983 C19.0039752,43.4699492 19.6971429,45.4370847 19.2208696,46.3375932 C17.2867081,45.7877797 17.728882,43.1774237 17.2090062,41.9077627 C16.2788199,43.0968814 15.5392547,44.746322 15.5985093,46.2033559 C15.0680124,46.5188136 14.9522981,46.0713559 14.5252174,45.9348814 C14.1607453,44.5091695 13.9209317,42.8569322 14.2568944,41.6387288 C13.3859627,42.5123898 13.2529193,44.1243559 12.6475155,45.2636949 C11.5345342,44.9448814 11.9627329,43.0845763 10.9028571,42.7126271 C10.8486335,42.1415593 10.8408075,41.5218305 10.6345342,41.1017797 C9.95142857,41.1068136 10.5545963,41.6202712 10.0978882,41.9077627 C9.92515528,42.092339 9.51540373,42.040322 9.15875776,42.042 C8.64111801,40.9423729 8.85242236,40.3824915 8.22018634,39.3566949 C7.54322981,39.6167797 8.04465839,41.2091695 7.41465839,41.6387288 C7.52981366,42.057661 7.80763975,42.2170678 7.41465839,42.5789492 C7.70869565,42.9240508 7.9015528,43.5784576 7.81714286,43.9207627 C6.80142857,44.3749322 6.77068323,43.1438644 6.07360248,43.1158983 C6.22006211,42.6964068 6.21055901,42.686339 5.67055901,42.7126271 C5.36757764,43.0471017 6.08701863,44.3022203 5.13391304,44.4577119 C4.51677019,44.1316271 4.31944099,43.4688305 4.06062112,43.1158983 C3.80403727,42.933 3.46639752,43.1075085 2.98732919,43.2495763 C2.67484472,42.2679661 1.98614907,42.5828644 2.04875776,41.7735254 L2.04875776,41.7735254 Z M76.1059006,42.4447119 C77.6431677,42.9738305 79.831677,41.2175593 81.2040373,40.2969153 C81.364472,39.070322 82.2074534,38.5261017 82.2773292,37.2088983 C80.8401242,35.1567458 80.3163354,32.190661 79.4599379,29.5579322 C79.2285093,29.5646441 79.1155901,29.4544576 79.0574534,29.2888983 C78.8780124,27.4655085 77.7085714,25.9279322 78.5208075,24.5911525 C79.0870807,23.6587627 80.5796273,23.5071864 81.2040373,22.5770339 C81.4254037,23.659322 82.35,23.4635593 83.2159006,23.5172542 C83.7637267,23.5508136 84.4580124,24.0469322 84.8258385,24.0542034 C85.8376398,24.0737797 86.4,23.5592034 87.1065839,23.1145424 C87.210559,22.4489492 87.1032298,22.4036441 87.1065839,21.6379322 C86.4145342,21.7475593 85.1299379,22.5507458 84.692236,22.9803051 C84.4568944,22.8572542 84.2260248,22.7308475 84.2891925,22.3091186 C83.8928571,22.2889831 83.342795,22.6989661 83.2159006,22.1748814 C83.6865839,21.929339 84.3165839,21.8437627 84.8258385,21.6379322 C84.8163354,21.8717288 84.8560248,22.0551864 84.96,22.1748814 C86.1188199,22.0361695 86.3547205,20.9745763 87.5096273,20.8325085 C88.2357764,19.2048814 88.3732919,17.7512034 88.4487578,15.5972542 C87.57,15.1324576 86.6610559,13.9864068 85.765528,13.9864068 C86.2362112,14.6318644 85.7845342,15.8372034 85.496646,16.1342034 C85.318882,15.9994068 84.9980124,16.0072373 84.96,15.7314915 C85.9321118,13.7380678 83.9370186,12.9701186 83.4847826,11.5701356 C83.4870186,11.3480847 83.8570807,11.4951864 83.8872671,11.301661 C83.6547205,10.6841695 83.3690683,10.1192542 83.0822981,9.55657627 C82.0291304,9.49113559 81.7580124,8.64432203 80.8015528,8.48267797 C80.4275776,7.82155932 80.1078261,7.75835593 79.4599379,7.27454237 C78.4537267,6.52281356 77.6135404,5.90867797 76.5078261,5.26042373 C76.0852174,5.01320339 75.6525466,4.61832203 75.3009317,4.45555932 C75.1024845,4.36383051 74.6944099,4.42647458 74.4959627,4.32132203 C73.9028571,4.00642373 73.5506832,3.54722034 73.0201863,3.38166102 C72.2392547,3.13723729 71.6293789,3.30615254 70.739441,3.24742373 C70.5773292,2.78318644 70.0630435,2.67076271 69.5319876,2.57623729 C68.0858385,0.534152542 65.1940994,1.59966102 62.6897516,1.90449153 C61.9278261,1.99733898 61.3302484,1.86925424 60.8114907,2.17352542 C60.2916149,3.51030508 58.8890683,3.40459322 58.3965839,4.05284746 C58.3921118,3.85428814 59.0713043,4.07745763 59.0673913,4.32132203 C58.233354,5.23189831 57.2176398,5.96069492 56.1158385,6.60335593 C56.5909938,5.60272881 57.8990683,5.43437288 58.3965839,4.45555932 C55.3874534,5.24811864 52.7768944,6.43947458 50.0785714,7.54245763 C52.4085093,5.78898305 55.4092547,5.3890678 58.1277019,3.91861017 C56.6413043,4.15240678 55.1118634,4.84932203 53.1637267,4.99250847 C51.8338509,5.97971186 50.0578882,6.30971186 48.602236,7.00550847 C48.5004969,7.05416949 48.4378882,7.34725424 48.333913,7.40877966 C48.1399379,7.52344068 47.8302484,7.43283051 47.6631056,7.54245763 C47.2555901,7.8109322 46.982795,8.23266102 46.5898137,8.48267797 C46.2102484,8.72374576 45.6534783,8.9480339 45.1145963,9.28810169 C43.4862112,10.313339 42.205528,11.5130847 40.2842236,11.435339 C39.1980745,12.1831525 38.6860248,13.5053898 37.3332298,13.9864068 C37.3103106,14.1872034 37.3807453,14.4819661 37.1985093,14.5233559 C36.6204969,14.6162034 36.3750932,15.0412881 35.8568944,15.1945424 C35.9860248,15.9054407 35.6047826,16.1051186 35.186087,16.2684407 C34.9501863,16.2354407 34.8803106,16.0374407 34.917764,15.7314915 C33.3626087,16.5357966 30.1136646,19.1461525 28.2096894,19.3558983 C27.8357143,19.3972881 27.180559,19.6517797 27.002236,18.9531864 C27.541677,18.8608983 27.7680745,19.0812712 28.2096894,19.0874237 C30.3847826,18.3177966 32.5157143,16.9547288 34.112795,15.7314915 C34.6684472,15.3058475 35.4270186,15.0172373 35.5891304,14.3891186 C33.207205,14.6581525 31.1327329,15.6481525 28.7463354,15.9999661 C27.9642857,16.1151864 27.268882,16.0100339 26.734472,16.1342034 C25.4476398,16.4317627 23.9813665,16.6431864 22.8437888,16.9390678 C21.0493789,17.4061017 18.9961491,17.6930339 17.4767702,18.1472034 C16.024472,18.5823559 15.0601863,18.973322 13.8549689,19.4901356 C12.2344099,20.1842542 10.8100621,21.0981864 9.56124224,21.9064068 C8.36329193,22.6816271 7.10720497,23.3052712 6.07360248,24.1884407 C5.38267081,24.3478475 4.80074534,24.6157627 4.32950311,24.9938644 C4.61124224,25.031339 4.13496894,25.3518305 4.46310559,25.5308136 C3.57819876,25.8608136 3.41440994,26.8071864 3.52397516,27.5443729 C3.20813665,27.8989831 2.66086957,28.0231525 2.18291925,28.215 C2.16726708,28.3788814 2.14267081,28.5332542 1.91403727,28.4840339 C2.20024845,28.8039661 1.75136646,28.875 1.64627329,29.1552203 C1.34440994,29.9539322 1.30136646,31.1547966 0.706583851,31.4366949 C0.713291925,33.017339 0.874285714,33.5761017 0.706583851,35.1958983 C0.830124224,35.7708814 1.58925466,36.400678 1.24322981,37.074661 C1.68484472,37.0808136 1.91124224,37.3017458 2.45068323,37.2088983 C2.38080745,37.5422542 2.1236646,37.687678 1.91403727,37.8806441 C2.8352795,38.2285424 4.8689441,38.6295763 5.67055901,37.8806441 C5.68397516,38.0915085 5.65267081,38.346 5.93944099,38.2827966 C6.75838509,38.3868305 7.19440994,38.1071695 7.95130435,38.1485593 C8.36608696,38.1161186 8.17770186,37.4807288 8.7568323,37.6121695 C9.0721118,37.6541186 8.83621118,38.2481186 9.29347826,38.1485593 C12.1287578,37.717322 13.7191304,39.6978814 15.8668323,39.0887797 C15.932795,39.5099492 15.4045342,39.4433898 15.7326708,39.7599661 C16.1569565,39.7381525 16.5426708,39.7549322 16.6723602,40.0284407 C16.471118,40.0513729 16.1770807,39.9797797 16.1357143,40.162678 C17.9044099,39.9741864 18.807764,41.5811186 20.2941615,40.9681017 C20.3075776,41.1789661 20.2762733,41.4334576 20.5630435,41.3708136 C21.3814286,41.5805593 22.0656522,41.9251017 22.9773913,42.042 C23.4251553,42.042 23.4352174,41.6051695 23.9170807,41.6387288 C24.4313665,42.4273729 25.2497516,42.4911356 26.4655901,42.3104746 C27.2303106,42.8770678 28.2108075,42.9894915 29.2829814,42.5789492 C29.6563975,43.2820169 31.6196273,43.3821356 31.9662112,42.5789492 C33.393913,43.1561695 34.8769565,42.4855424 36.2599379,42.4447119 C37.0386335,42.4212203 37.7916149,42.6483051 38.5401242,42.5789492 C39.0963354,42.5269322 39.5837888,42.1863051 40.1506211,42.042 C41.0008696,41.8244237 41.8740373,41.8143559 42.6991304,41.6387288 C45.8440994,40.9708983 49.0617391,40.1235254 52.2245963,40.5648305 C52.4247205,40.723678 52.6036025,40.9021017 52.7612422,41.1017797 C52.7819255,40.9440508 52.738323,40.7214407 52.8959627,40.6996271 C53.5181366,41.5022542 54.1308075,41.7545085 55.1767081,42.042 C56.0476398,42.2808305 57.1365839,42.9715932 57.8599379,43.1158983 C58.2372671,43.1914068 58.772795,43.0258475 59.2009938,43.1158983 C60.4928571,43.3866102 61.9641615,42.9475424 63.091677,43.1158983 C63.4449689,43.1684746 63.7077019,43.3720678 64.0313665,43.3843729 C65.3735404,43.4347119 67.6078882,42.8748305 69.3978261,43.1158983 C69.8344099,42.5453898 71.2000621,42.2651695 71.9468944,42.4447119 C72.3236646,41.7925424 73.3214907,41.7617797 73.9593168,41.3708136 C74.1493789,41.762339 74.696087,41.7970169 75.0326087,42.042 C75.0130435,41.6638983 75.3613043,41.6549492 75.7034161,41.6387288 C75.7710559,42.0604576 75.3870186,42.1874237 75.8375776,42.3104746 C77.669441,41.3210339 79.1200621,39.2599322 79.9965839,37.4779322 C80.1296273,37.206661 79.7668323,36.5886102 80.3985093,36.6725085 C79.6103106,39.2392373 78.4643478,41.4491186 76.1059006,42.4447119 L76.1059006,42.4447119 Z M39.2109317,11.9722881 C39.2903106,11.6847966 40.137205,11.4795254 39.7475776,11.1674237 C39.7062112,11.4923898 38.9219255,11.7608644 39.2109317,11.9722881 L39.2109317,11.9722881 Z M85.0947205,12.9125085 C85.3289441,11.8279831 84.424472,11.8822373 83.8872671,11.5701356 C84.1718012,12.1350508 84.4496273,12.7072373 85.0947205,12.9125085 L85.0947205,12.9125085 Z M85.765528,13.5831356 C85.593913,13.5758644 85.5793789,13.4119831 85.3630435,13.4494576 C85.1539752,13.7800169 85.8186335,13.844339 85.765528,13.5831356 L85.765528,13.5831356 Z M36.3935404,14.5233559 C36.5522981,14.4584746 36.6976398,14.3801695 36.7965839,14.254322 C36.6165839,14.2336271 36.0564596,14.4651864 36.3935404,14.5233559 L36.3935404,14.5233559 Z M70.202795,43.7865254 C69.2586335,44.2988644 67.6257764,43.9789322 66.3121118,44.0555593 C65.515528,44.1019831 64.8173292,44.3436102 64.165528,44.3240339 C63.6445342,44.3078136 63.1537267,44.0852034 62.6897516,44.0555593 C60.2631056,43.8972712 57.4049068,44.484 54.5059006,42.8474237 C53.4326087,43.3843729 52.377205,43.9392203 51.0171429,44.1897966 C50.6996273,44.5427288 50.4184472,44.9331356 49.8096894,44.994661 C49.6677019,45.4387627 49.1254658,46.0685593 48.870559,46.2033559 C48.4786957,46.4097458 48.3417391,46.663678 48.0655901,46.8745424 C47.3209938,47.4428136 46.4696273,48.065339 45.7848447,48.4853898 C44.5108696,49.267322 43.4906832,49.0374407 42.297205,49.5592881 C41.9584472,49.8848136 42.7645342,49.3322034 42.6991304,49.8277627 C42.5073913,50.2623559 41.5358385,49.9161356 41.491677,50.4983898 C41.8343478,50.4279153 41.9612422,50.3205254 42.1624845,50.6326271 C38.8559627,51.7540678 35.3532298,52.6791864 31.2954037,53.0494576 C31.0220497,53.0886102 31.0321118,53.4124576 30.7587578,53.4521695 C29.3718634,52.8201356 28.2421118,53.6775763 26.8680745,53.7206441 C26.3286335,53.7368644 25.7109317,53.543339 25.1239752,53.5864068 C24.9070807,53.6020678 24.6387578,53.8291525 24.4537267,53.854322 C24.2407453,53.8834068 23.9919876,53.6943559 23.7823602,53.7206441 C22.3149689,53.904661 21.1583851,54.8706102 19.4897516,54.6603051 C19.2359627,54.6748475 19.3963975,55.1044068 19.0867081,55.0624576 C18.8541615,54.3784068 18.5142857,54.7414068 18.0134161,54.6603051 C17.8065839,54.6261864 17.6556522,54.5383729 17.4767702,54.5255085 C14.9103727,54.351 12.781677,53.9745763 11.3053416,54.3918305 C11.2309938,54.630661 11.2365839,54.9489153 11.0375776,55.0624576 C10.347764,55.292339 9.81223602,54.8398475 9.56124224,55.4657288 C9.81782609,55.5222203 10.1386957,55.5143898 10.0978882,55.8684407 C9.78763975,56.2459831 10.0565217,56.9037458 10.0978882,57.3444915 C10.8721118,57.7337797 11.3142857,58.4553051 11.8419876,59.0901356 L12.512795,59.0901356 C13.1651553,59.9033898 13.5374534,60.5935932 14.2568944,61.2373729 C15.6695031,62.502 17.2369565,63.9461695 19.0867081,63.5199661 C20.5049068,65.1716441 22.1254658,65.0597797 24.7214907,64.9960169 C26.5796273,64.9507119 28.6781366,64.2722542 30.6251553,64.3253898 C34.4918012,64.4299831 38.9795031,63.526678 41.760559,63.1172542 C44.3364596,62.7374746 47.6329193,63.1351525 50.2121739,62.9830169 C52.4632919,62.849339 54.8692547,63.6648305 56.1158385,63.2514915 C56.0180124,63.6172881 56.3819255,63.5210847 56.3836025,63.7884407 C60.1457143,64.9948983 63.8938509,63.6776949 66.1779503,62.0433559 C66.4524224,62.1680847 67.0248447,61.9840678 67.3854037,62.3112712 C68.7096894,61.3095254 70.3090062,60.5835254 71.1419255,59.0901356 C72.6143478,58.1918644 73.442795,56.6486949 74.4959627,55.3314915 C75.3702484,55.0428814 75.5591925,54.0685424 76.3742236,53.7206441 C77.2613665,52.0124746 78.5834161,50.7405763 79.3252174,48.8875424 C80.0804348,48.3159153 80.8043478,47.405339 81.4718012,47.1424576 C81.4550311,47.3840847 81.6054037,47.4573559 81.8748447,47.4114915 C83.426087,46.8605593 84.6603727,45.9930508 85.3630435,44.5925085 C85.2903727,43.8391017 86.0109317,41.2371356 85.228882,40.6996271 C85.8650311,40.4803729 84.8247205,39.8158983 84.8258385,39.3566949 C83.8660248,39.2884576 83.6826708,38.4427627 83.0822981,38.0148814 C82.9274534,38.3292203 82.9716149,38.6010508 82.8139752,38.9545424 C82.441677,39.7862542 82.3097516,39.5088305 82.5456522,40.4305932 C82.7480124,41.2242712 83.2813043,41.9150339 83.0822981,42.5789492 C82.6977019,41.7052881 82.2365217,41.3406102 82.2773292,40.2969153 C81.8508075,40.2862881 81.9687578,40.8763729 81.7406832,41.1017797 C81.5729814,41.2678983 81.0648447,41.3025763 80.8015528,41.5044915 C80.2475776,41.9301356 79.9501863,42.4648475 79.4599379,42.7126271 C78.6186335,43.1393898 76.6956522,43.3871695 75.9711801,43.5186102 C74.7184472,43.7451356 73.4226708,44.1215593 72.6171429,43.5186102 C72.3896273,44.1489661 73.2477019,43.6931186 73.0201863,44.3240339 C72.4091925,43.8161695 70.7813665,44.3262712 70.202795,43.7865254 L70.202795,43.7865254 Z M9.69540373,40.4305932 C10.2281366,39.9350339 10.4528571,39.1307288 10.9028571,38.5518305 C10.5020497,38.281678 9.63726708,38.4757627 9.02459627,38.4175932 C8.99049689,39.3471864 8.97037267,40.2611186 9.69540373,40.4305932 L9.69540373,40.4305932 Z M2.98732919,39.3566949 C3.29813665,39.2202203 3.61173913,39.0871017 3.65813665,38.6860678 C3.04714286,38.7688475 2.08453416,38.2022542 1.77987578,38.8197458 C2.1963354,38.9483898 1.66304348,39.9311186 1.91403727,39.8936441 C1.9436646,39.7896102 2.02695652,39.7381525 2.18291925,39.7599661 C2.02863354,40.1822542 2.39310559,40.0860508 2.45068323,40.2969153 C1.92018634,40.2739831 2.49372671,40.5027458 2.18291925,40.6996271 C2.71565217,40.5687458 2.23770186,41.449678 2.71956522,41.3708136 C2.71173913,41.1398136 2.82242236,41.0268305 2.98732919,40.9681017 C3.01751553,41.0721356 2.99124224,41.232661 3.12204969,41.2365763 C3.10136646,40.753322 2.9068323,40.0608814 3.38981366,40.2969153 C2.74639752,39.634678 3.41273292,39.9478983 2.98732919,39.3566949 L2.98732919,39.3566949 Z M6.87801242,40.0284407 C7.56559006,39.8007966 7.00267081,38.9254576 7.68354037,38.5518305 C6.81875776,38.446678 6.36204969,38.7509492 5.53695652,38.6860678 C5.82931677,40.0250847 5.4989441,40.7555593 6.34136646,41.2365763 C6.29944099,41.4177966 6.15018634,41.4927458 6.20720497,41.7735254 C6.75950311,41.7097627 6.07863354,42.1348475 6.61024845,42.175678 C6.53813665,41.9827119 7.13236025,41.8484746 6.74385093,41.7735254 C6.46881988,41.8809153 7.39285714,40.4820508 6.87801242,40.0284407 L6.87801242,40.0284407 Z M4.19478261,41.3708136 C4.59055901,41.6678136 4.73813665,41.8602203 5.13391304,41.6387288 C4.95782609,41.1577119 5.14341615,41.1470847 4.99975155,40.6996271 L5.40279503,40.6996271 C5.43409938,39.6878136 5.19596273,39.3964068 5.40279503,38.6860678 C4.78006211,38.6452373 4.24062112,38.6871864 3.92645963,38.9545424 C3.66819876,39.9697119 4.35242236,40.2840508 4.19478261,41.3708136 L4.19478261,41.3708136 Z M12.512795,42.981661 C13.1059006,41.6057288 13.8532919,40.3841695 15.0618634,39.6257288 C13.8672671,39.433322 13.0265217,38.8879831 11.8419876,38.6860678 C11.6843478,40.0961186 11.0839752,42.5073559 12.512795,42.981661 L12.512795,42.981661 Z M15.1960248,44.1897966 C15.7248447,42.8395932 16.0384472,41.2734915 17.3426087,40.6996271 C16.472795,40.8086949 16.0060248,40.5156102 15.4649068,40.2969153 C14.9780124,41.4351356 14.7158385,43.4643559 15.1960248,44.1897966 L15.1960248,44.1897966 Z M18.4159006,44.0555593 C19.0984472,43.3496949 18.9245963,42.5347627 19.3555901,41.5044915 C18.5668323,41.416678 18.4634161,41.4368136 17.8792547,41.1017797 C18.1235404,42.2332881 18.3890683,43.1701525 18.4159006,44.0555593 L18.4159006,44.0555593 Z M49.675528,42.4447119 C50.4503106,42.1902203 51.5526708,42.2640508 52.0904348,41.7735254 C50.9673913,41.2488814 50.1450932,41.449678 49.675528,42.4447119 L49.675528,42.4447119 Z M21.5016149,45.1294576 C21.8420497,43.9599153 21.8783851,43.2087458 22.7096273,42.4447119 C22.0192547,42.2847458 21.3540373,42.1007288 20.696646,41.9077627 C20.6597516,43.2876102 21.0449068,44.2440508 21.5016149,45.1294576 L21.5016149,45.1294576 Z M52.4929193,42.042 C51.1278261,42.7982034 48.9790062,42.3759153 48.1997516,43.9207627 C49.772795,43.4458983 51.6281366,42.9508983 53.2978882,42.4447119 C53.0239752,42.3160678 52.7668323,42.1706441 52.4929193,42.042 L52.4929193,42.042 Z M73.6904348,42.3104746 C73.891677,42.2869831 74.1857143,42.3585763 74.2276398,42.175678 C74.0493168,42.0017288 73.7284472,41.9989322 73.6904348,42.3104746 L73.6904348,42.3104746 Z M73.2885093,42.175678 C73.168323,42.0554237 72.9067081,42.2892203 72.8860248,42.3104746 C72.4606211,42.7355593 73.4919876,42.3798305 73.2885093,42.175678 L73.2885093,42.175678 Z M24.5873292,45.1294576 C24.9042857,44.2832034 25.3727329,43.5885254 25.6606211,42.7126271 C25.110559,42.7266102 24.5610559,42.7394746 24.1848447,42.5789492 C23.9729814,43.6472542 24.0406211,44.3900339 24.5873292,45.1294576 L24.5873292,45.1294576 Z M74.2276398,42.8474237 C74.4624224,42.7249322 74.8967702,42.801 75.0326087,42.5789492 C74.7072671,42.5342034 73.9464596,42.7282881 74.2276398,42.8474237 L74.2276398,42.8474237 Z M26.8680745,43.1158983 C26.8088199,43.7434576 26.640559,44.4968644 27.271118,44.7267458 C27.2543478,43.9492881 27.7820497,43.7166102 27.9413665,43.1158983 C27.4293168,43.2355932 27.085528,42.8960847 26.8680745,43.1158983 L26.8680745,43.1158983 Z M30.0885093,44.994661 C30.2086957,44.3100508 30.8124224,44.1081356 31.0270807,43.5186102 C30.8828571,43.4475763 30.3886957,43.379339 29.8196273,43.3843729 C29.701677,44.119322 29.3746584,44.6943051 30.0885093,44.994661 L30.0885093,44.994661 Z M70.6052795,43.7865254 C71.6774534,43.6534068 72.0290683,43.9548814 72.4835404,43.5186102 C71.7937267,43.4073051 71.0653416,43.3597627 70.6052795,43.7865254 L70.6052795,43.7865254 Z M48.333913,44.3240339 C47.9839752,44.4571525 47.1247826,44.3648644 47.3953416,44.8604237 C48.1231677,44.4991017 49.3686335,44.6008983 49.9438509,43.7865254 C49.4832298,43.8189661 48.8789441,44.1159661 48.333913,44.3240339 L48.333913,44.3240339 Z M46.9922981,45.1294576 C46.4578882,45.2653729 45.6512422,45.5137119 45.3823602,45.9348814 C46.442236,45.4734407 48.0449068,45.5551017 48.870559,44.8604237 C48.2545342,44.9577458 47.5982609,44.9750847 46.9922981,45.1294576 L46.9922981,45.1294576 Z M45.2481988,46.2033559 C45.0726708,46.564678 44.820559,46.8493729 44.4432298,47.0087797 C45.2627329,47.1122542 45.6987578,46.8325932 46.4556522,46.8745424 C46.6563354,46.267678 48.0940994,46.1904915 47.7972671,45.5316102 C47.2103106,46.017661 46.1806211,46.0624068 45.2481988,46.2033559 L45.2481988,46.2033559 Z M41.8941615,48.2163559 C43.4789441,48.2359322 44.8546584,48.0457627 45.6512422,47.2766949 C44.3163354,47.5076949 42.4056522,47.1620339 41.8941615,48.2163559 L41.8941615,48.2163559 Z M41.0891925,48.7538644 C41.5414286,49.1616102 41.4961491,48.2571864 41.0891925,48.7538644 L41.0891925,48.7538644 Z M39.4798137,50.0962373 C40.1959006,50.094 41.0645963,49.5380339 40.9550311,49.1565763 C40.5637267,49.5699153 39.6961491,49.5078305 39.4798137,50.0962373 L39.4798137,50.0962373 Z M31.1618012,52.6467458 C31.5788199,52.6394746 33.3430435,52.6109492 33.4425466,52.2434746 C32.4721118,52.2692034 31.8784472,50.8915932 31.8320497,49.5592881 C31.1483851,50.1281186 31.1288199,51.3608644 31.1618012,52.6467458 L31.1618012,52.6467458 Z M24.9903727,53.1836949 C25.5298137,53.0975593 26.4163975,53.3576441 26.734472,53.0494576 C25.9132919,52.504678 26.3476398,50.3747797 25.7947826,49.9614407 C25.3201863,50.8295085 24.839441,51.6908644 24.9903727,53.1836949 L24.9903727,53.1836949 Z M33.7103106,52.3782712 C34.1910559,52.3665254 34.4856522,52.1690847 34.917764,52.1097966 C34.6790683,51.2747288 34.0457143,50.8345424 33.7103106,50.0962373 C33.6980124,51.049322 34.4386957,51.8379661 33.7103106,52.3782712 L33.7103106,52.3782712 Z M35.9910559,51.9755593 C36.4561491,52.0829492 36.5070186,51.775322 36.9301863,51.841322 C36.8379503,51.217678 36.4991925,50.8406949 36.3935404,50.2304746 C36.0508696,50.6035424 35.9312422,51.1992203 35.9910559,51.9755593 L35.9910559,51.9755593 Z M10.7686957,53.9885593 C11.4590683,53.9186441 11.9163354,53.6154915 12.781677,53.7206441 C12.5278882,52.9482203 12.9091304,50.9072542 12.244472,50.3647119 C11.4959627,51.2764068 10.9224224,52.9096271 10.7686957,53.9885593 L10.7686957,53.9885593 Z M22.4407453,53.854322 C22.6531677,53.5064237 23.2250311,53.5953559 23.9170807,53.4521695 C23.673354,53.0690339 23.5727329,52.5427119 23.2462733,52.2434746 C23.2440373,52.5997627 23.3200621,53.0337966 22.9773913,53.0494576 C22.8191925,52.9840169 22.6732919,52.9062712 22.5749068,52.7804237 C22.7381366,52.4067966 22.9086335,52.041 23.2462733,51.841322 C22.855528,51.7389661 23.3675776,50.7349831 22.9773913,50.6326271 C22.6157143,51.544322 21.8068323,52.7457458 22.4407453,53.854322 L22.4407453,53.854322 Z M28.2096894,53.0494576 C28.8128571,53.1148983 29.2147826,52.9812203 29.6854658,52.9152203 C29.3612422,52.058339 28.7720497,51.7708475 28.8810559,50.7674237 C28.8508696,50.6622712 28.7681366,50.6108136 28.6121739,50.6326271 C28.4053416,51.4039322 27.81,52.0622542 28.2096894,53.0494576 L28.2096894,53.0494576 Z M14.3916149,51.9755593 C14.131677,52.4560169 14.0685093,53.178661 13.9885714,53.854322 C14.4631677,53.8778136 15.2435404,54.2911525 15.5985093,53.9885593 C15.123354,53.1825763 15.3626087,52.0717627 15.4649068,51.0358983 C15.0937267,51.1399322 14.5744099,51.6360508 14.3916149,51.9755593 L14.3916149,51.9755593 Z M19.3555901,54.2575932 C20.1102484,54.2072542 21.1058385,54.3985424 21.3674534,53.854322 C21.0516149,53.8515254 20.972795,54.0858814 20.5630435,53.9885593 C20.2578261,53.8917966 20.6860248,53.0595254 20.16,53.1836949 C20.0146584,53.5271186 20.5680745,53.823 20.16,53.9885593 C19.6110559,54.036661 19.7239752,52.4090339 20.2941615,52.3782712 C20.2768323,52.5544576 20.2740373,53.3492542 20.428323,52.9152203 C20.5451553,52.0639322 20.2382609,51.777 20.16,51.4386102 C20.161118,51.4419661 20.4993168,50.7456102 20.0263975,51.0358983 C19.6322981,51.8664915 18.9156522,53.0343559 19.3555901,54.2575932 L19.3555901,54.2575932 Z M16.9401242,54.1233559 C17.1760248,54.0456102 17.728323,54.2855593 17.7456522,53.9885593 C17.1844099,53.6552034 17.551677,52.3928136 16.9401242,52.1097966 C16.832236,52.7854576 16.7271429,53.4751017 16.9401242,54.1233559 L16.9401242,54.1233559 Z M9.15875776,55.0624576 C9.68198758,55.0881864 9.96763975,54.6832373 10.0978882,54.2575932 C10.2516149,53.7564407 9.99279503,52.5136271 9.69540373,52.3782712 C9.10956522,52.9331186 9.18335404,54.3224746 9.15875776,55.0624576 L9.15875776,55.0624576 Z M16.2693168,54.1233559 L16.5381988,54.1233559 C16.6198137,54.1155254 16.6969565,54.1032203 16.6723602,53.9885593 C16.4945963,53.9868814 16.5493789,53.7542034 16.4034783,53.7206441 C16.4096273,53.9052203 16.3403106,54.0148475 16.2693168,54.1233559 L16.2693168,54.1233559 Z M61.4817391,64.5933051 C62.0228571,64.4635424 62.5757143,64.3455254 62.9580745,64.0563559 C62.4158385,64.1855593 61.7282609,64.1687797 61.4817391,64.5933051 L61.4817391,64.5933051 Z" id="Fill-52" sketch:type="MSShapeGroup"/>
            <path d="M83.2159006,12.5092373 C83.2902484,12.8073559 82.9598758,12.7005254 82.9481366,12.9125085 C83.4791925,14.3930339 83.0616149,16.6202542 81.6059627,16.9390678 C81.0139752,16.6057119 80.4890683,16.3271695 79.8618634,16.5369153 C79.5013043,16.6571695 79.4325466,17.1359492 79.0574534,17.4765763 C78.6292547,17.8647458 77.7398758,18.1572712 77.044472,18.5504746 C76.2003727,19.0281356 75.4328571,20.0757458 74.0934783,20.0270847 C73.2499379,20.8694237 71.7523602,21.1132881 71.6785714,22.3091186 C71.6103727,23.4115424 72.9279503,24.1347458 73.4226708,25.1281017 C74.3791304,24.9938644 74.881677,24.3534407 76.1059006,24.1884407 C75.8906832,24.4205593 75.604472,24.5816441 75.3009317,24.7253898 C76.0600621,24.8864746 76.4457764,25.4983729 75.9711801,26.202 C75.8018012,25.969322 75.5183851,25.8501864 75.5692547,25.3960169 C74.879441,25.2338136 74.3847205,25.3982542 73.4226708,25.5308136 C74.3472671,28.2994576 73.982795,31.3852373 73.1537888,33.7187288 C71.9178261,34.8088475 70.8691304,36.0868983 69.3978261,36.9409831 C68.04,36.9834915 66.7503727,37.8414915 65.6413043,37.3436949 C65.3260248,37.2021864 63.9285093,35.754661 63.7630435,35.3301356 C63.5478261,34.7786441 63.5450311,33.6627966 63.628323,33.0481017 C63.7854037,31.8986949 64.6881988,30.7202034 64.4338509,29.4236949 C65.3277019,28.7709661 65.2611801,27.7166441 65.9090683,26.7389492 C66.0124845,26.5828983 66.507205,26.2316441 66.7145963,25.9329661 C66.9259006,25.6292542 67.047205,25.1241864 67.2512422,24.8590678 C67.413354,24.6482034 67.6442236,24.6700169 67.7878882,24.4569153 C67.8773292,24.3232373 67.8203106,23.9999492 67.7878882,24.0542034 C68.3502484,23.1212542 69.0864596,22.4036441 68.1898137,20.9661864 C68.1937267,19.9879322 68.6750311,19.650661 68.5928571,18.9531864 C68.4693168,17.9078136 67.4893789,17.2987119 67.6531677,15.9999661 C67.7420497,15.3019322 69.122236,13.2721525 69.6661491,12.7782712 C71.456087,11.1512034 74.6245342,11.0466102 76.3742236,9.82505085 C77.3787578,10.1746271 79.4409317,9.89832203 80.6673913,10.3614407 C81.5176398,10.6836102 81.9726708,11.4862373 82.8139752,11.8386102 C82.7340373,12.2670508 83.065528,12.2536271 82.8139752,12.5092373 C82.8721118,12.7089153 82.9855901,12.4572203 83.2159006,12.5092373 L83.2159006,12.5092373 Z M69.6661491,14.3891186 C72.1609938,13.1681186 74.4009317,12.3537458 76.9108696,11.0331864 C74.3176398,11.4957458 71.5164596,12.7525424 69.6661491,14.3891186 L69.6661491,14.3891186 Z M77.4475155,11.0331864 C76.3255901,11.7194746 74.9867702,12.3201864 73.6904348,12.9125085 C71.9044099,13.7285593 69.210559,14.455678 68.5928571,16.2684407 C71.3152174,15.0054915 74.1918634,13.5277627 76.7767081,12.3755593 C77.7108075,11.9594237 78.752236,11.7972203 79.4599379,11.0331864 L77.4475155,11.0331864 L77.4475155,11.0331864 Z M79.9965839,11.301661 C77.0634783,12.5388814 73.9268944,14.1228814 71.276087,15.4630169 C70.3123602,15.9501864 69.0529193,16.168322 68.7264596,17.0733051 C69.7293168,16.9642373 70.5980124,16.2153051 71.5438509,15.7314915 C73.532236,14.7146441 75.7190683,13.8085424 77.7152795,13.0467458 C78.748882,12.6524237 79.8411801,12.1076441 80.9351553,12.1070847 C76.7996273,13.7492542 72.088882,15.5044068 68.9953416,17.7450508 C69.7818634,18.1869153 70.471677,17.2785763 71.1419255,16.9390678 C73.89,15.5485932 77.7711801,14.3617119 80.6673913,13.3152203 C81.0804969,13.1658814 81.8798758,13.2693559 82.0090062,12.6440339 C81.5209938,12.013678 80.7540373,11.6624237 79.9965839,11.301661 L79.9965839,11.301661 Z M72.8860248,17.0733051 C75.2813665,15.9188644 77.7840373,15.0927458 80.1307453,13.9864068 C80.3750311,13.8806949 81.5858385,13.3342373 80.9351553,13.5831356 C76.8493789,14.9982203 72.6137888,16.2639661 69.3978261,18.5504746 C70.6662112,18.4542712 71.7098758,17.6404576 72.8860248,17.0733051 L72.8860248,17.0733051 Z M80.6673913,14.1206441 C81.0396894,13.9254407 81.8496894,14.1508475 82.0090062,13.4494576 C81.5645963,13.6759831 81.0447205,13.827 80.6673913,14.1206441 L80.6673913,14.1206441 Z M74.7642857,16.8053898 C73.4338509,17.4088983 72.2979503,17.9631864 71.1419255,18.5504746 C70.5818012,18.8346102 69.6896273,19.0270169 69.5319876,19.7586102 C70.2374534,19.8223729 70.7696273,19.2541017 71.4102484,18.9531864 C73.4154037,18.0107288 75.7581988,17.1672712 77.9841615,16.402678 C78.9551553,15.6291356 80.3985093,15.3282203 81.7406832,14.9260678 C81.6747205,14.5021017 81.9821739,14.4517627 81.8748447,13.9864068 C79.3978882,14.7084915 76.7867702,15.8864237 74.7642857,16.8053898 L74.7642857,16.8053898 Z M82.2773292,15.8651695 C82.3069565,15.5720847 82.8827329,15.1430847 82.5456522,14.9260678 C82.5646584,15.2689322 81.9514286,15.659339 82.2773292,15.8651695 L82.2773292,15.8651695 Z M80.9351553,15.5972542 C81.1995652,15.5569831 81.2018012,15.7784746 81.3381988,15.8651695 C81.2577019,15.626339 81.7311801,15.3080847 81.3381988,15.1945424 C81.3231056,15.4479153 80.8943478,15.2873898 80.9351553,15.5972542 L80.9351553,15.5972542 Z M69.6661491,20.161322 C69.8886335,20.5819322 68.9970186,20.5399831 69.3978261,20.6982712 C71.5941615,19.7642034 73.5825466,18.6209492 76.2400621,18.1472034 C76.4642236,17.5666271 77.2373292,17.5353051 77.4475155,16.9390678 C74.608323,17.7679831 72.273913,19.1014068 69.6661491,20.161322 L69.6661491,20.161322 Z M78.118323,17.6102542 C77.0903106,18.051 78.5487578,17.425678 78.118323,17.6102542 L78.118323,17.6102542 Z M74.4959627,18.9531864 C74.7329814,19.1741186 75.1617391,18.8301356 75.4345342,18.6841525 C75.0191925,18.6712881 74.6904969,18.745678 74.4959627,18.9531864 L74.4959627,18.9531864 Z M69.3978261,21.1009831 C69.302795,21.5982203 69.6270186,21.6770847 69.5319876,22.1748814 C70.1530435,22.0328136 71.3140994,21.7246271 71.007205,21.1009831 C70.7746584,21.2704576 70.6561491,21.5545932 70.202795,21.5031356 C71.2716149,20.3811356 73.0928571,20.0097458 74.2276398,18.9531864 C72.5455901,19.5969661 71.0301242,20.4074237 69.3978261,21.1009831 L69.3978261,21.1009831 Z M69.3978261,23.1145424 C69.931677,22.8880169 70.7752174,22.9713559 70.739441,22.1748814 C70.1379503,22.3337288 69.5101863,22.4657288 69.3978261,23.1145424 L69.3978261,23.1145424 Z M68.8611801,24.5911525 C69.3967081,24.008339 70.3403106,23.8338305 71.007205,23.3830169 C70.6980745,23.4238475 70.8585093,22.9948475 70.6052795,22.9803051 C69.9640994,23.3701525 68.5978882,23.7432203 68.8611801,24.5911525 L68.8611801,24.5911525 Z M67.6531677,26.0677627 C69.123913,25.5705254 70.377205,24.8551525 71.6785714,24.1884407 C71.1765839,24.0972712 71.7775155,23.7421017 71.276087,23.6509322 C70.024472,24.4127288 68.2591304,24.6605085 67.6531677,26.0677627 L67.6531677,26.0677627 Z M71.9468944,24.5911525 C69.7991925,25.6102373 66.599441,26.2551356 66.0437888,28.6182712 C68.0612422,27.7904746 70.6902484,26.3876949 72.3493789,26.0677627 C71.462236,26.9050678 70.108323,27.0572034 68.9953416,27.5443729 C67.8549689,28.0427288 66.8817391,28.7485932 65.7754658,29.1552203 C65.7531056,29.4997627 65.2063975,30.0053898 65.5071429,30.2291186 C67.7755901,28.9191864 70.0132919,27.5784915 72.8860248,26.8731864 C72.7820497,25.9027627 72.3169565,25.2947797 71.9468944,24.5911525 L71.9468944,24.5911525 Z M65.2388199,30.6318305 C65.336087,31.0423729 65.0073913,31.0267119 65.1046584,31.4366949 C67.8130435,30.3572034 70.4549068,28.5125593 73.0201863,28.0807627 C72.901677,27.4968305 73.1359006,27.3379831 72.7518634,27.1411017 C70.0026708,28.0595085 67.7006832,29.4259322 65.2388199,30.6318305 L65.2388199,30.6318305 Z M68.3245342,30.2291186 C67.6581988,30.5462542 66.962236,30.9707797 66.3121118,31.3030169 C65.7273913,31.6011356 64.5886957,31.7510339 64.8357764,32.6448305 C66.0113665,31.876322 67.3831677,31.1436102 68.7264596,30.4970339 C70.0943478,29.8403898 71.4136025,28.9667288 72.8860248,28.8867458 C72.543354,29.3425932 72.2884472,29.2447119 71.5438509,29.4236949 C69.7768323,30.3247627 67.8387578,31.3382542 66.1779503,32.242678 C65.6211801,32.5452712 64.712795,32.7147458 64.5680124,33.4508136 C65.3332919,33.493322 65.9051553,32.8719153 66.5804348,32.5111525 C68.0467081,31.7281017 69.5929193,30.9651864 71.007205,30.3627966 C71.6886335,30.0730678 72.5947826,29.9164576 73.0201863,29.2888983 C73.3360248,29.0936949 73.0134783,28.411322 72.8860248,28.215 C71.5863354,28.8705254 69.841118,29.5053559 68.3245342,30.2291186 L68.3245342,30.2291186 Z M72.6171429,29.9606441 C70.8048447,30.7330678 68.763354,31.813678 67.2512422,32.6448305 C66.9085714,32.833322 66.514472,32.9960847 66.1779503,33.1817797 C65.5686335,33.5190508 64.3695652,33.8205254 64.5680124,34.7926271 C67.5743478,33.6678305 69.9551553,31.8813559 72.8860248,31.0339831 C72.8496894,30.5507288 73.1336646,30.3874068 73.1537888,29.9606441 L72.6171429,29.9606441 L72.6171429,29.9606441 Z M64.8357764,35.3301356 C65.3931056,36.0018814 65.9291925,35.2048475 66.4457143,34.9268644 C68.3631056,33.8960339 70.5672671,33.034678 72.4835404,32.242678 C72.4192547,31.8203898 72.6747205,31.7174746 72.7518634,31.4366949 C69.841118,32.4624915 67.2568323,33.8138136 64.8357764,35.3301356 L64.8357764,35.3301356 Z M65.5071429,36.0007627 C66.5893789,36.5343559 67.5754658,35.5342881 68.4586957,35.061661 C69.4749689,34.5174407 70.4498758,33.8647119 71.6785714,33.7187288 C71.6338509,33.3076271 72.4416149,33.0632034 71.9468944,32.6448305 C69.8003106,33.7640339 67.4944099,34.7232712 65.5071429,36.0007627 L65.5071429,36.0007627 Z M66.9823602,36.4040339 C68.8214907,36.0902542 70.1932919,35.671322 71.1419255,34.2562373 C69.5303106,34.7467627 68.2037888,35.5225424 66.9823602,36.4040339 L66.9823602,36.4040339 Z" id="Fill-53" sketch:type="MSShapeGroup"/>
            <path d="M76.9108696,19.8928475 C76.499441,19.7216949 77.0645963,19.4845424 77.044472,19.8928475 C78.4660248,19.485661 79.4146584,18.7328136 80.8015528,18.8189492 C80.550559,19.7312034 79.9496273,20.2927627 79.3252174,20.8325085 C79.4124224,20.9689831 79.6337888,20.9712203 79.5940994,21.2352203 C78.5571429,21.4511186 77.8159006,21.9617797 76.7767081,22.1748814 C77.7940994,21.0450508 79.5890683,20.6932373 80.2649068,19.2211017 C79.383913,19.4599322 77.8030435,20.1579661 76.6425466,20.5640339 C76.3691925,20.0516949 77.2647205,20.0438644 76.9108696,19.8928475" id="Fill-54" sketch:type="MSShapeGroup"/>
            <path d="M78.5208075,33.7187288 C78.925528,34.4475254 78.6940994,36.5897288 78.2519255,37.6121695 C78.0719255,38.0288644 77.5962112,38.5356102 77.313354,38.6860678 C78.2703727,37.3582373 78.3223602,35.8754746 78.5208075,33.7187288" id="Fill-55" sketch:type="MSShapeGroup"/>
            <path d="M57.4574534,7.14030508 C56.882795,7.28125424 56.4825466,7.59671186 55.713354,7.54245763 C55.8564596,8.31264407 55.4796894,8.56210169 55.4450311,9.15330508 C56.0157764,9.73052542 56.16,8.59342373 56.6524845,9.01962712 C56.697205,8.48267797 56.4797516,7.68340678 57.0549689,7.67725424 C57.1986335,8.09954237 57.147205,8.3870339 57.0549689,8.88538983 C57.0667081,9.09513559 57.8549068,8.62810169 57.7257764,9.28810169 C57.9426708,9.08618644 58.7152174,9.08618644 58.9332298,9.28810169 C58.5542236,9.56888136 57.1550311,10.1477797 56.786646,9.55657627 C56.4931677,9.75457627 56.0644099,9.81833898 55.8469565,10.0935254 C55.5914907,10.0359153 55.6049068,9.70983051 55.1767081,9.82505085 C55.0660248,8.63201695 55.4808075,8.349 55.1767081,7.40877966 C54.5126087,7.46023729 54.2565839,7.91944068 53.5662112,7.94572881 C54.1045342,6.64194915 55.9352795,7.07374576 57.0549689,6.60335593 C57.2511801,6.72025424 57.4798137,6.80415254 57.4574534,7.14030508" id="Fill-56" sketch:type="MSShapeGroup"/>
            <path d="M61.7506211,7.27454237 C62.548882,7.12128814 64.166087,5.94838983 65.2388199,6.06640678 C64.1945963,6.76723729 62.7065217,7.02284746 61.7506211,7.81149153 C63.1917391,7.57266102 64.5937267,6.2319661 66.4457143,6.33488136 C64.8581366,6.93447458 63.2269565,7.43842373 62.1531056,8.21420339 C63.447205,8.07661017 64.8989441,6.9350339 66.5804348,6.73759322 C66.1913665,7.33494915 65.3176398,7.28964407 64.7021739,7.54245763 C64.1006832,7.79023729 63.6573913,8.1890339 63.091677,8.34844068 C64.1537888,8.29083051 65.5082609,7.36571186 66.9823602,7.27454237 C66.0750932,7.93230508 64.7776398,8.20022034 63.628323,8.61635593 C65.1443478,8.93684746 66.2808075,7.80142373 67.7878882,8.07940678 C67.8163975,8.57328814 67.2987578,8.31208475 67.1170807,8.34844068 C66.3529193,8.50001695 65.5714286,8.76457627 64.8357764,8.88538983 C65.6485714,9.54371186 66.7129193,8.30425424 67.9220497,8.48267797 C67.7554658,9.12142373 66.5675776,8.73828814 66.1779503,9.15330508 C67.0242857,9.438 67.8421118,9.26237288 68.3245342,8.88538983 C69.1546584,8.86189831 69.931118,8.72654237 70.6052795,8.48267797 C71.8904348,8.01788136 72.895528,7.05976271 73.9593168,6.87127119 C73.3321118,7.71025424 72.2068323,8.14876271 71.007205,8.61635593 C69.9534783,9.02801695 67.9840994,9.39101695 66.8487578,9.95928814 C66.600559,10.0834576 66.602236,10.5510508 66.1779503,10.2272034 C66.0784472,9.77023729 66.6726708,10.0068305 66.7145963,9.69081356 C66.5301242,9.58398305 65.0577019,9.36920339 64.5680124,9.95928814 C64.3075155,10.0118644 64.3718012,9.34794915 64.7021739,9.55657627 C64.0526087,8.83113559 62.728882,9.40164407 61.7506211,9.01962712 C61.5208696,8.93013559 61.4140994,8.41332203 61.0798137,8.48267797 C61.5124845,8.01844068 61.5068944,7.37689831 61.2139752,6.73759322 C61.9077019,5.64747458 63.1649068,5.16925424 64.2991304,4.85827119 C64.0453416,5.58818644 63.0156522,5.54232203 62.5550311,6.06640678 C63.1498137,6.1659661 64.2370807,5.60384746 64.8357764,5.26042373 C65.0526708,5.39298305 65.1449068,5.61894915 64.9704969,5.79737288 C64.1213665,6.05745763 62.3247205,6.31474576 61.7506211,7.27454237" id="Fill-57" sketch:type="MSShapeGroup"/>
            <path d="M64.7021739,12.1070847 C64.1873292,12.475678 64.9727329,13.4170169 64.7021739,14.3891186 C64.347764,14.7504407 64.2415528,15.3601017 63.897205,15.7314915 C64.4070186,16.1163051 64.5791925,16.8389492 64.9704969,17.342339 C65.2617391,19.3301695 64.2868323,19.6059153 64.165528,21.3694576 C63.1559627,21.9243051 62.7613043,23.1128644 61.4817391,23.5172542 C60.4520497,23.8427797 59.2753416,23.5698305 58.2624224,24.1884407 C58.4837888,25.1482373 57.9527329,26.335678 57.5910559,27.1411017 C58.2098758,28.1702542 57.866646,28.7972542 58.2624224,29.8264068 C58.1914286,30.2917627 57.6313043,30.2682712 57.4574534,30.6318305 C58.2014907,32.5698814 56.3601242,33.5643559 55.3103106,34.5247119 C54.8027329,34.1824068 54.5249068,33.6102203 54.1034161,33.1817797 C52.9842857,33.7629153 52.3883851,34.8675763 50.7493789,34.9268644 C50.5486957,34.4603898 50.7108075,33.3501356 50.6146584,32.7796271 C51.0484472,32.6593729 51.0853416,32.2404407 51.2860248,31.8399661 C51.5079503,31.3941864 51.5303106,30.6374237 51.9562733,29.8264068 C52.4135404,28.9544237 53.2855901,28.0315424 53.9692547,27.0068644 C54.7624845,25.8183051 54.9955901,25.361339 54.7736646,23.7851695 C54.4589441,21.5422881 55.2940994,19.1953729 55.8469565,17.0733051 C56.2136646,17.0615593 56.1175155,17.2975932 56.3836025,17.0733051 C56.3019876,15.3802373 57.0169565,14.485322 58.5307453,14.3891186 C58.2048447,11.6394915 61.1234161,10.5874068 63.897205,11.301661 C64.1185714,11.6171186 64.2068944,12.0645763 64.7021739,12.1070847 L64.7021739,12.1070847 Z M61.2139752,11.9722881 C60.9395031,12.8610508 59.758323,12.8431525 59.4698758,13.7173729 C60.3989441,13.2151017 61.3626708,12.7475085 62.1531056,12.1070847 C61.6880124,12.2144746 61.6371429,11.9068475 61.2139752,11.9722881 L61.2139752,11.9722881 Z M61.7506211,12.7782712 C60.573913,13.4315593 59.1149068,13.9824915 59.2009938,15.0603051 C60.1859627,14.3197627 61.2329814,13.8678305 62.1531056,13.3152203 C62.5684472,13.0652034 63.1162733,12.8286102 63.360559,12.3755593 C62.995528,11.8179153 62.4074534,12.4130339 61.7506211,12.7782712 L61.7506211,12.7782712 Z M60.0065217,12.5092373 C59.941118,13.0556949 60.480559,12.4052034 60.6773292,12.3755593 C60.297764,12.2648136 60.3296273,12.5646102 60.0065217,12.5092373 L60.0065217,12.5092373 Z M60.2742857,14.6575932 C59.9886335,14.8589492 59.1042857,15.2308983 59.6040373,15.5972542 C60.6790062,14.4355424 62.6461491,14.1665085 63.7630435,13.0467458 C63.5852795,13.0450678 63.6406211,12.8112712 63.4947205,12.7782712 C62.6511801,13.4690339 61.2173292,13.9953559 60.2742857,14.6575932 L60.2742857,14.6575932 Z M63.4947205,13.5831356 C62.6170807,14.4948305 60.9490062,14.6162034 60.2742857,15.7314915 C61.6075155,15.6716441 63.091677,14.8600678 63.7630435,13.7173729 C63.7334161,13.613339 63.6501242,13.561322 63.4947205,13.5831356 L63.4947205,13.5831356 Z M57.7257764,15.8651695 C57.868882,15.2918644 58.9913665,15.7365254 58.6643478,15.0603051 C58.6257764,15.5195085 57.2472671,15.3343729 57.7257764,15.8651695 L57.7257764,15.8651695 Z M61.3481366,16.1342034 C61.9568944,16.0184237 62.7719255,16.1493051 62.9580745,15.3282203 C62.9278882,15.2247458 62.9541615,15.0642203 62.823913,15.0603051 C62.4326087,15.5183898 61.6863354,15.6224237 61.3481366,16.1342034 L61.3481366,16.1342034 Z M63.897205,17.342339 C63.6445342,16.5559322 63.0486335,17.8535593 62.6897516,17.342339 C62.636646,16.7522542 63.4131056,16.9916441 63.4947205,16.5369153 C63.0363354,16.6375932 63.3236646,15.9915763 62.823913,16.1342034 C62.5712422,16.3730339 62.2022981,16.4972034 62.0183851,16.8053898 C62.3051553,17.5436949 63.3851553,18.2825593 63.897205,17.342339 L63.897205,17.342339 Z M57.1891304,16.9390678 C56.7832919,17.6986271 56.5820497,18.2652203 56.25,19.0874237 C56.1203106,19.4090339 55.7826708,19.7451864 55.713354,20.0270847 C55.2147205,22.042322 56.0588199,24.1649492 55.713354,25.9329661 C55.0526087,27.0051864 54.2213665,28.4543898 53.8350932,28.7519492 C53.7931677,28.7843898 53.5975155,28.9790339 53.5662112,29.0209831 C52.6097516,30.3063051 52.2273913,31.7068475 51.5537888,33.5850508 C53.7791925,32.8579322 53.7618634,29.8873729 55.1767081,28.3497966 C55.5691304,28.3145593 55.5886957,28.6535085 55.981677,28.6182712 C56.4970807,28.1171186 56.3008696,27.4537627 56.518323,26.8731864 C56.6351553,26.5605254 56.8850311,26.5834576 57.0549689,26.202 C57.2707453,25.7170678 56.9247205,25.1157966 56.9202484,24.5911525 C56.9168944,24.1023051 57.4032298,23.7465763 57.3232919,23.2487797 C58.0287578,23.3729492 58.0321118,22.7951695 58.5307453,22.7118305 C59.7068944,22.6967288 61.2424845,22.8387966 62.1531056,22.1748814 C63.5947826,21.1239153 63.5064596,19.1360847 62.2872671,18.282 C61.9306211,18.0319831 61.287764,18.1035763 60.9450932,17.7450508 C60.7432919,17.5330678 60.5325466,17.1029492 60.5431677,16.6711525 C59.2434783,16.5268475 58.0773913,16.2555763 57.1891304,16.9390678 L57.1891304,16.9390678 Z M61.4817391,16.8053898 C61.8065217,17.4955932 61.828323,16.3433898 61.4817391,16.8053898 L61.4817391,16.8053898 Z M64.0313665,18.6841525 C63.9072671,18.4503559 64.0358385,17.9637458 63.628323,18.0135254 C63.3504969,18.2892712 63.628882,18.6942203 64.0313665,18.6841525 L64.0313665,18.6841525 Z M55.0425466,31.0339831 C55.3991925,30.1815763 57.2785714,30.1413051 56.9202484,29.0209831 C56.5390062,29.8482203 54.8653416,30.0948814 55.0425466,31.0339831 L55.0425466,31.0339831 Z M54.2370186,32.242678 C54.7725466,32.1095593 54.6411801,32.6437119 55.1767081,32.5111525 C55.3991925,31.9277797 55.9990062,31.7230678 56.518323,31.4366949 C56.4954037,31.2364576 56.5658385,30.9416949 56.3836025,30.9003051 C55.6049068,31.334339 54.7496273,31.9272203 54.2370186,32.242678 L54.2370186,32.242678 Z M55.4450311,32.7796271 C55.6921118,32.4848644 56.7095031,32.2622542 56.3836025,31.8399661 C56.1851553,32.1828305 55.2292547,32.4675254 55.4450311,32.7796271 L55.4450311,32.7796271 Z" id="Fill-58" sketch:type="MSShapeGroup"/>
            <path d="M43.1016149,34.5247119 C43.2564596,34.1309492 42.6158385,34.9352542 42.1624845,34.7926271 C41.6398137,34.3764915 41.6593789,33.4172542 41.491677,32.6448305 C40.767764,32.6940508 39.8448447,33.1409492 39.2109317,33.8529661 C38.9498758,34.1471695 38.9856522,34.5498814 38.6742857,34.7926271 C37.1565839,35.9806271 35.0334783,35.9548983 33.3083851,34.9268644 C31.4049689,35.2400847 30.06,33.8993898 29.0146584,32.9138644 C28.8150932,31.1436102 30.69,30.4198475 30.8929193,28.6182712 C30.4792547,27.7065763 29.5977019,27.7955085 29.1488199,27.1411017 C27.7384472,25.0833559 29.3998137,22.7666441 30.6251553,20.9661864 C34.3548447,18.5236271 39.416646,17.4133729 43.3704969,15.1945424 C44.9228571,13.8840508 46.5210559,12.6199831 48.1997516,11.435339 C49.0606211,11.5365763 49.4698137,11.1847627 50.0785714,11.0331864 C50.756087,11.2048983 51.2932919,11.517 52.0904348,11.5701356 C52.4509938,12.0735254 52.2698758,12.4460339 52.2245963,13.1809831 C52.8367081,13.9315932 54.091677,12.6647288 54.7736646,13.4494576 C54.7691925,14.9154407 53.9301242,15.1738475 54.2370186,16.5369153 C53.6086957,17.7428136 52.6103106,18.5778814 51.9562733,19.7586102 C51.9758385,20.593678 51.8701863,21.2581525 51.6879503,22.1748814 C51.5856522,22.6900169 51.2860248,22.9551356 51.2860248,23.1145424 C51.2832298,24.0212034 51.7634161,24.5122881 52.3593168,25.262339 C52.2754658,25.6404407 52.4230435,25.9475085 52.0904348,26.3362373 C51.7751553,26.7053898 51.6549689,26.9705085 51.2860248,27.6780508 C50.7169565,28.7698475 49.8650311,29.8331186 49.138882,30.7660678 C49.0186957,31.1587119 49.0186957,31.1782881 49.138882,31.5709322 C47.2203727,32.6974068 45.6216149,34.8491186 42.9674534,34.7926271 C42.9462112,34.6371356 42.9976398,34.5537966 43.1016149,34.5247119 L43.1016149,34.5247119 Z M50.0785714,11.9722881 C46.9106832,13.3224915 44.4169565,15.3472373 42.297205,17.7450508 C45.4388199,16.2796271 47.790559,14.023322 50.4804969,12.1070847 C50.309441,12.0998136 50.2949068,11.9348136 50.0785714,11.9722881 L50.0785714,11.9722881 Z M50.6146584,12.3755593 C48.9527329,13.9338305 46.7245342,14.9260678 45.2481988,16.6711525 C46.0867081,16.6118644 46.4310559,16.072678 46.8581366,15.7314915 C47.9431677,14.8634237 49.2026087,14.073661 50.2121739,13.3152203 C50.5397516,13.0691186 51.3095031,12.951661 51.0171429,12.3755593 L50.6146584,12.3755593 L50.6146584,12.3755593 Z M51.0171429,13.0467458 C49.5799379,14.3824068 47.6468944,15.2230678 46.4556522,16.8053898 C47.1873913,16.8182542 47.7279503,16.0368814 48.333913,15.5972542 C49.3367702,14.8690169 50.4793789,14.2945932 51.4196273,13.5831356 C51.1954658,13.5674746 51.572236,13.0109492 51.0171429,13.0467458 L51.0171429,13.0467458 Z M51.2860248,13.9864068 C50.2261491,14.9842373 48.69,15.5060847 47.7972671,16.6711525 C49.6475776,16.3294068 50.4637267,14.9534746 51.8226708,14.1206441 C51.6404348,14.0781356 51.566087,13.9293559 51.2860248,13.9864068 L51.2860248,13.9864068 Z M52.2245963,14.254322 C51.0473292,15.18 49.8298137,16.0642881 48.7363975,17.0733051 C49.4793168,17.224322 50.1864596,16.8115424 50.6146584,17.0733051 C51.4531677,16.3473051 52.4219255,15.7493898 53.1637267,14.9260678 C52.4068323,14.9752881 51.6818012,16.2153051 50.7493789,16.5369153 C50.7521739,15.6006102 51.7813043,15.690661 52.0904348,15.0603051 C52.651677,14.9501186 52.9596894,14.5871186 53.2978882,14.254322 C52.922236,14.4092542 52.6002484,14.4092542 52.2245963,14.254322 L52.2245963,14.254322 Z M51.2860248,17.2081017 C52.0937888,17.9240339 52.5147205,16.7751864 53.1637267,16.5369153 C53.1849689,16.1129492 53.1687578,15.7264576 52.8959627,15.5972542 C52.3738509,16.1493051 51.662795,16.5117458 51.2860248,17.2081017 L51.2860248,17.2081017 Z M40.0164596,18.282 C40.594472,18.1897119 40.8136025,17.7377797 41.6258385,17.8792881 C41.5945342,17.2287966 43.1468944,16.8562881 42.5649689,16.5369153 C41.6113043,17.0145763 40.7610559,17.5951525 40.0164596,18.282 L40.0164596,18.282 Z M40.2842236,17.6102542 C39.4009938,17.8899153 38.4775155,18.1293051 38.0034783,18.8189492 C38.9750311,18.627661 39.5742857,18.0638644 40.2842236,17.6102542 L40.2842236,17.6102542 Z M46.0531677,18.1472034 C44.7875776,17.4631525 43.9641615,18.2462034 42.9674534,18.5504746 C42.7399379,18.6198305 42.4436646,18.497339 42.1624845,18.5504746 C41.3731677,18.6992542 40.5430435,19.1489492 39.7475776,19.3558983 C39.5217391,19.4146271 39.151118,19.2882203 38.9431677,19.3558983 C38.5267081,19.4906949 38.2745963,19.8229322 37.8698758,19.8928475 C36.9687578,20.046661 36.2990683,19.7815424 35.7227329,20.0270847 C35.2268944,20.2379492 34.9144099,20.7530847 34.2469565,21.1009831 C33.9780745,21.2413729 33.7589441,21.1132881 33.4425466,21.2352203 C33.2016149,21.3275085 32.4950311,21.7632203 31.9662112,22.0400847 C30.2813665,22.9226949 29.2824224,23.9826102 29.5518634,26.0677627 C30.2785714,27.1824915 31.9142236,27.2697458 31.9662112,28.6182712 C32.0120497,29.8085085 30.0913043,31.3365763 29.9543478,32.3769153 C30.3098758,32.5575763 30.3568323,33.0475424 30.8929193,33.0481017 C31.3630435,32.8674407 31.3032298,32.6660847 31.4295652,32.3769153 C31.5273913,32.8719153 31.8337267,32.3193051 32.1003727,32.6448305 C33.6885093,31.8628983 36.2180124,32.0217458 37.8698758,31.3030169 C38.3187578,31.7342542 38.5608075,31.5642203 39.0767702,31.8399661 C40.6078882,30.9618305 42.6113665,30.1838136 44.5779503,31.0339831 C44.9306832,30.8505254 45.086087,30.4696271 45.5165217,30.3627966 C46.9425466,30.0053898 47.7268323,29.0539831 49.0052795,28.8867458 C49.2406211,28.6305763 49.4798758,28.3772034 49.675528,28.0807627 L50.0785714,28.0807627 C50.2764596,27.0700678 51.4224224,26.4464237 51.2860248,25.5308136 C50.582236,25.3372881 50.2423602,24.3718983 50.3463354,23.3830169 C50.5190683,21.7408475 51.1468323,19.3161864 51.8226708,18.4162373 C49.3686335,18.8027288 47.9973913,16.8411864 46.0531677,18.1472034 L46.0531677,18.1472034 Z M31.2954037,21.9064068 C31.4345963,21.5529153 31.8275776,21.4539153 31.9662112,21.1009831 C31.6078882,21.1524407 31.0019255,21.646322 31.2954037,21.9064068 L31.2954037,21.9064068 Z M43.2357764,33.4508136 C45.0307453,33.1353559 45.8854658,31.3421695 47.6631056,31.4366949 C47.9420497,30.8661864 48.4138509,30.4880847 48.7363975,29.9606441 C47.2198137,31.4406102 44.7378261,31.9551864 43.2357764,33.4508136 L43.2357764,33.4508136 Z M42.028323,31.9742034 C42.5493168,32.0032881 42.8701863,31.8315763 42.9674534,31.4366949 C42.6298137,31.5916271 42.0473292,31.5004576 42.028323,31.9742034 L42.028323,31.9742034 Z M42.5649689,32.3769153 C42.6449068,32.6548983 42.3989441,33.2584068 42.6991304,33.3165763 C43.2251553,32.7684407 43.9373292,32.4071186 44.5779503,31.9742034 C43.6416149,31.6615424 43.2089441,31.8399661 42.5649689,32.3769153 L42.5649689,32.3769153 Z M44.9798758,33.0481017 C45.9570186,32.817661 46.6949068,32.3472712 47.2606211,31.7057288 C46.4332919,32.0855085 45.6534783,32.5139492 44.9798758,33.0481017 L44.9798758,33.0481017 Z M37.3332298,32.9138644 C37.5825466,32.8954068 37.7809938,32.8254915 37.8698758,32.6448305 C37.5635404,32.6079153 37.3650932,32.6778305 37.3332298,32.9138644 L37.3332298,32.9138644 Z M35.186087,34.6589492 C36.451118,34.4480847 37.0157143,33.5363898 38.2718012,33.3165763 C38.246646,32.9379153 38.8000621,32.9798644 38.2718012,32.7796271 C37.2130435,33.3753051 36.1067702,33.924 35.186087,34.6589492 L35.186087,34.6589492 Z M32.9059006,34.122 C33.8612422,33.9144915 34.6449689,33.5358305 35.186087,32.9138644 C34.3503727,33.2405085 33.4190683,33.4726271 32.9059006,34.122 L32.9059006,34.122 Z M37.1985093,32.9138644 C36.7770186,32.984339 36.450559,33.149339 36.1257764,33.3165763 C35.8714286,33.3462203 35.8295031,33.165 35.5891304,33.1817797 C35.0306832,33.6527288 34.1759627,33.8272373 33.7103106,34.3899153 C34.1921739,34.3110508 34.3593168,34.5465254 34.649441,34.6589492 C35.2576398,33.8350678 36.4874534,33.6342712 37.1985093,32.9138644 L37.1985093,32.9138644 Z M32.2350932,33.8529661 C32.5475776,33.8082203 32.8131056,33.7153729 32.9059006,33.4508136 C32.4844099,33.3864915 32.3569565,33.6186102 32.2350932,33.8529661 L32.2350932,33.8529661 Z M36.3935404,34.7926271 C36.8877019,34.4816441 37.7301242,34.5191186 37.8698758,33.8529661 C37.3108696,34.0996271 36.6847826,34.2791695 36.3935404,34.7926271 L36.3935404,34.7926271 Z" id="Fill-59" sketch:type="MSShapeGroup"/>
            <path d="M33.5761491,15.5972542 C32.943913,16.9329153 31.2210559,17.1784576 29.8196273,17.7450508 C29.5088199,17.7070169 29.5110559,17.3865254 29.6854658,17.2081017 C28.6652795,17.6633898 27.7283851,18.2025763 26.4655901,18.4162373 L26.4655901,18.9531864 C26.2732919,18.7434407 26.1279503,18.4861525 25.7947826,18.4162373 C25.7209938,18.118678 26.0513665,18.2249492 26.0636646,18.0135254 C25.2709938,17.7937119 24.4861491,19.0980508 23.9170807,18.8189492 C24.3245963,17.887678 25.7154037,17.8815254 26.4655901,17.6102542 C26.8904348,17.457 27.0519876,17.1683898 27.4047205,17.0733051 C28.1811801,16.8652373 29.158323,16.8937627 29.9543478,16.8053898 C30.2852795,16.7684746 30.777764,16.8411864 31.2954037,16.8053898 C32.217764,16.7410678 32.5609938,15.8165085 33.5761491,15.5972542 L33.5761491,15.5972542 Z M26.6003106,17.8792881 C27.1056522,18.1444068 27.7904348,17.5940339 28.3444099,17.4765763 C27.5215528,17.540339 26.8451553,17.5453729 26.6003106,17.8792881 L26.6003106,17.8792881 Z" id="Fill-60" sketch:type="MSShapeGroup"/>
            <path d="M60.8114907,46.6055085 C60.3447205,47.2028644 61.6885714,46.9875254 61.2139752,47.5457288 C61.647764,47.4691017 61.8886957,47.586 62.0183851,47.8136441 C61.5247826,48.2700508 60.9590683,48.1990169 61.0798137,49.022339 C60.2373913,48.6794746 59.8287578,49.3115085 58.9332298,49.2908136 C58.8208696,49.1347627 58.7560248,48.9311695 58.7990683,48.6196271 C58.1813665,48.807 57.8062733,49.2371186 57.1891304,49.4244915 C57.6413665,48.3114407 59.0148447,48.1195932 60.1406832,47.6799661 C60.0976398,47.9948644 59.7253416,47.980322 59.6040373,48.2163559 C59.6918012,48.6185085 59.8908075,48.0888305 60.1406832,48.2163559 C60.4654658,48.0944237 60.4956522,47.6771695 60.5431677,47.2766949 C59.5649068,47.1055424 57.5536025,47.0115763 57.5910559,45.3979322 C57.7475776,45.4197458 57.8303106,45.3677288 57.8599379,45.2636949 C58.6291304,45.9253729 58.9673292,47.0188475 60.8114907,46.6055085" id="Fill-61" sketch:type="MSShapeGroup"/>
            <path d="M73.1537888,49.2908136 C72.9184472,49.765678 72.4829814,49.4306441 72.0804969,49.1565763 C71.2006211,49.7858136 71.097205,50.5179661 71.1419255,51.4386102 C69.3575776,52.2513051 68.3351553,49.5637627 70.3363975,49.4244915 C70.3151553,50.0291186 69.5772671,49.9172542 69.5319876,50.4983898 C69.7119876,50.9894746 70.1608696,51.2120847 70.8736025,51.1695763 C70.8534783,50.9217966 70.4191304,51.0873559 70.3363975,50.901661 C70.915528,50.2981525 70.6304348,49.6622034 71.276087,49.1565763 C68.3278882,48.6241017 66.236087,50.1091017 64.2991304,51.0358983 C64.8139752,50.2981525 65.7218012,49.9536102 66.5804348,49.5592881 C65.2052795,49.3031186 63.901118,50.2785763 62.9580745,50.901661 C63.0754658,49.7846949 64.5870186,49.6364746 65.7754658,49.2908136 C66.9203106,48.9568983 67.6000621,48.7672881 68.9953416,48.6196271 C69.747764,48.5396441 70.9473913,48.3746441 71.4102484,48.4853898 C71.8289441,48.5849492 72.5701863,48.9775932 73.1537888,49.2908136" id="Fill-62" sketch:type="MSShapeGroup"/>
        </g>
    </g>
</svg>