<svg xmlns="http://www.w3.org/2000/svg" xmlns:xlink="http://www.w3.org/1999/xlink" xmlns:sketch="http://www.bohemiancoding.com/sketch/ns" width="90px" height="65px" viewBox="0 0 90 65" version="1.1">
    <!-- Generator: Sketch 3.0.4 (8053) - http://www.bohemiancoding.com/sketch -->
    <title>deinonychus</title>
    <desc>Created with Sketch.</desc>
    <defs/>
    <g id="Page-1" stroke="none" stroke-width="1" fill="none" fill-rule="evenodd" sketch:type="MSPage">
        <g id="deinonychus" sketch:type="MSLayerGroup" fill="#000000">
            <path d="M3.96422819,24.2134112 C4.36892617,24.400514 3.89838926,24.9071495 3.6742953,24.9429907 C3.61026846,25.2181776 3.87181208,25.8207944 3.38436242,25.6713551 C3.04852349,25.0286449 3.62657718,24.6021963 3.96422819,24.2134112" id="Fill-1" sketch:type="MSShapeGroup"/>
            <path d="M4.39912752,21.8807009 C5.23812081,22.2828505 4.96389262,21.3479439 5.84879195,21.4439252 C6.2166443,21.7999065 5.54315436,21.7537383 5.7038255,22.3186916 C5.16624161,22.2154206 5.08167785,22.567757 4.54409396,22.464486 C4.56281879,22.2020561 4.36651007,22.1571028 4.39912752,21.8807009" id="Fill-2" sketch:type="MSShapeGroup"/>
            <path d="M5.12395973,23.3386449 C5.70744966,22.5653271 7.22416107,22.7299533 8.02328859,22.1722897 C7.87167785,23.0634579 5.98409396,23.2475234 5.12395973,23.3386449" id="Fill-3" sketch:type="MSShapeGroup"/>
            <path d="M5.7038255,20.2775701 C5.8433557,20.0048131 5.92731544,19.5941589 6.13872483,19.4021963 C6.21302013,19.3359813 6.50899329,19.4769159 6.57362416,19.4021963 C7.02785235,18.8821963 8.48899329,18.0365888 9.32798658,17.5074766 C9.75261745,17.238972 10.1391946,16.7730374 10.4877181,16.6327103 C11.3158389,16.2992056 12.3849664,16.4383178 13.2420805,16.1959346 C13.748255,16.0513551 14.107047,15.4693925 14.691745,15.7579439 C14.8578523,16.2165888 14.4640268,16.1121028 14.4018121,16.3411215 C14.7557718,16.8763084 15.3018121,15.9383645 15.5615436,16.3411215 C15.6104698,17.3756542 13.8515436,16.9249065 13.5320134,17.653271 L13.5320134,18.2358411 C11.475906,20.2648131 9.14677852,21.6826636 6.42865772,22.0264953 C6.36402685,21.3789252 6.53194631,20.9646262 6.7185906,20.5685514 C6.51201342,20.3237383 5.93214765,20.7544393 5.7038255,20.2775701 L5.7038255,20.2775701 Z M8.74812081,20.423972 C9.9809396,19.3785047 11.5103356,18.6331308 12.5172483,17.3616822 C10.5432886,17.3683645 9.56114094,18.3737383 8.45818792,19.2564019 C9.37087248,19.3311215 8.44610738,20.2228972 8.74812081,20.423972 L8.74812081,20.423972 Z" id="Fill-4" sketch:type="MSShapeGroup"/>
            <path d="M6.28369128,24.6514019 C6.99100671,24.7078972 6.64489933,25.7606542 6.13872483,25.8171495 C6.01369128,25.673785 6.07832215,24.9004673 6.28369128,24.6514019" id="Fill-5" sketch:type="MSShapeGroup"/>
            <path d="M10.0528188,23.6308411 C10.4116107,23.2141121 10.8024161,22.8295794 11.3575168,22.6102804 C11.5562416,22.9425701 10.9836242,23.1588318 11.3575168,23.1928505 C11.0712081,23.3908879 10.6828188,23.4874766 10.6326846,23.9224299 C10.237047,24.0281308 10.3409396,23.6320561 10.0528188,23.6308411" id="Fill-6" sketch:type="MSShapeGroup"/>
            <path d="M10.3427517,59.0588785 C10.4067785,58.928271 10.4695973,58.7976636 10.6326846,58.7672897 C11.0095973,59.1657944 11.6921477,59.2569159 11.7924161,59.9336449 C11.0742282,59.877757 10.7444295,59.4324766 10.3427517,59.0588785" id="Fill-7" sketch:type="MSShapeGroup"/>
            <path d="M13.8219463,19.9859813 C13.3930872,20.4780374 13.432953,21.4402804 12.6622148,21.5897196 C12.2768456,20.8115421 13.3187919,20.3431776 13.8219463,19.9859813" id="Fill-8" sketch:type="MSShapeGroup"/>
            <path d="M14.1118792,22.0264953 C14.242953,22.6485514 13.2360403,23.3793458 13.5320134,24.6514019 C12.7932886,23.9685981 13.613557,22.4274299 14.1118792,22.0264953" id="Fill-9" sketch:type="MSShapeGroup"/>
            <path d="M16.8662416,20.5685514 C16.312953,20.9360748 16.0212081,21.5648131 15.5615436,22.0264953 C15.4226174,21.5222897 16.1691946,20.2526636 16.8662416,20.5685514" id="Fill-10" sketch:type="MSShapeGroup"/>
            <path d="M15.996443,59.2046729 C16.583557,59.3923832 16.9580537,59.7933178 17.3011409,60.2252336 C16.4585235,60.2950935 16.2253691,59.7520093 15.996443,59.2046729" id="Fill-11" sketch:type="MSShapeGroup"/>
            <path d="M17.0112081,58.6214953 C17.55,58.7660748 17.3905369,58.9331308 18.0259732,58.7672897 C18.0024161,58.9367757 18.0579866,59.0266822 18.1715436,59.0588785 C17.8224161,59.4458411 17.0269128,59.0515888 17.0112081,58.6214953" id="Fill-12" sketch:type="MSShapeGroup"/>
            <path d="M17.7360403,26.8377103 L17.7360403,26.4009346 C18.0392617,26.3395794 18.1202013,26.5005607 18.315906,26.5473364 C18.2210738,26.7429439 18.0060403,26.8176636 17.7360403,26.8377103" id="Fill-13" sketch:type="MSShapeGroup"/>
            <path d="M19.4756376,25.088785 C20.0669799,24.9381308 20.2487919,25.7685514 19.620604,25.6713551 C19.507651,25.5419626 19.4647651,25.3427103 19.4756376,25.088785" id="Fill-14" sketch:type="MSShapeGroup"/>
            <path d="M19.7655705,22.3186916 C20.1479195,22.1212617 21.441745,22.9115888 21.0702685,23.4850467 C20.475906,23.257243 20.2789933,22.6278972 19.7655705,22.3186916" id="Fill-15" sketch:type="MSShapeGroup"/>
            <path d="M19.9105369,59.787243 L19.9105369,59.0588785 L20.4904027,59.0588785 L20.4904027,59.787243 L19.9105369,59.787243" id="Fill-16" sketch:type="MSShapeGroup"/>
            <path d="M22.5199329,49.2906542 L22.5199329,48.9990654 L22.8098658,48.9990654 L22.8098658,49.2906542 L22.5199329,49.2906542" id="Fill-17" sketch:type="MSShapeGroup"/>
            <path d="M23.534698,26.1093458 C24.1918792,26.0309813 23.873557,26.9349065 24.1145638,27.2757009 C23.5534228,27.2781308 23.2834228,26.467757 23.534698,26.1093458" id="Fill-18" sketch:type="MSShapeGroup"/>
            <path d="M24.4044966,58.6214953 C25.0272483,59.0801402 25.9351007,58.9580374 26.4340268,58.4750935 C26.6907383,58.8395794 26.6188591,58.6330374 27.1588591,58.6214953 C26.8785906,59.2818224 24.0698658,59.7198131 24.4044966,58.6214953" id="Fill-19" sketch:type="MSShapeGroup"/>
            <path d="M24.2595302,57.4551402 C24.3761074,57.5322897 24.4944966,57.6070093 24.6944295,57.6009346 C24.7131544,57.8615421 24.5168456,57.9083178 24.5494631,58.1847196 C24.232953,58.162243 24.2377852,57.8165888 24.2595302,57.4551402" id="Fill-20" sketch:type="MSShapeGroup"/>
            <path d="M25.7091946,61.9741589 C26.2232215,61.3502804 27.2802685,60.5727103 28.1736242,60.8078037 C27.3769128,61.1473832 26.5530201,62.1606542 25.7091946,61.9741589" id="Fill-21" sketch:type="MSShapeGroup"/>
            <path d="M26.8689262,26.6919159 C27.2065772,27.1748598 26.8713423,27.9876636 26.2890604,28.0040654 C26.0269128,27.598271 26.3851007,26.8079439 26.8689262,26.6919159" id="Fill-22" sketch:type="MSShapeGroup"/>
            <path d="M28.0286577,27.2757009 C28.0691275,27.5107944 27.8915436,27.5271963 27.8836913,27.7136916 C27.4185906,27.8406542 27.5834899,27.3352336 27.3038255,27.2757009 C27.427047,26.8486449 27.7707383,27.3619626 28.0286577,27.2757009" id="Fill-23" sketch:type="MSShapeGroup"/>
            <path d="M28.1736242,26.5473364 C28.3856376,26.7228972 28.3131544,27.183972 28.8984564,26.9835047 L28.8984564,27.5672897 C28.1772483,27.6978972 27.6408725,26.7903271 28.1736242,26.5473364" id="Fill-24" sketch:type="MSShapeGroup"/>
            <path d="M30.2031544,28.1498598 C30.2224832,28.509486 30.2255034,28.8527103 30.0581879,29.0258411 C29.5097315,28.9201402 29.587651,28.1784112 30.2031544,28.1498598" id="Fill-25" sketch:type="MSShapeGroup"/>
            <path d="M30.9279866,57.8925234 C31.2287919,56.9734112 32.8934899,56.6727103 33.3924161,57.0183645 C32.5528188,57.588785 31.9856376,57.5401869 30.9279866,57.8925234" id="Fill-26" sketch:type="MSShapeGroup"/>
            <path d="M32.2326846,29.0258411 C32.0073826,28.5070561 32.7249664,28.9365421 32.6681879,28.5878505 C33.1290604,28.8168692 32.4863758,29.4620093 32.2326846,29.0258411" id="Fill-27" sketch:type="MSShapeGroup"/>
            <path d="M35.2769799,28.0040654 C35.6744295,28.0077103 35.6212752,28.6923364 35.4219463,28.8794393 C35.0244966,28.8764019 35.077651,28.1917757 35.2769799,28.0040654" id="Fill-28" sketch:type="MSShapeGroup"/>
            <path d="M36.292349,57.6009346 C36.3859732,57.4527103 36.6251678,57.4502804 36.5816779,57.1629439 C37.2104698,57.8536449 37.686443,56.6253271 38.4662416,56.5803738 C38.024094,57.2449533 37.1174497,58.1920093 36.292349,57.6009346" id="Fill-29" sketch:type="MSShapeGroup"/>
            <path d="M38.6112081,29.1704206 C38.6625503,28.9796729 38.8661074,28.9414019 38.9011409,28.7336449 C39.8452349,29.6758411 40.6202013,28.0435514 41.3655705,28.7336449 C40.9922819,29.3721028 39.0865772,29.5513084 38.6112081,29.1704206" id="Fill-30" sketch:type="MSShapeGroup"/>
            <path d="M42.525302,8.75981308 C42.0541611,8.56056075 42.9432886,7.97920561 43.1051678,7.88504673 C43.7732215,7.49504673 45.7061074,7.34257009 46.8742953,7.01028037 C46.2908054,7.79635514 44.9492617,7.53939252 43.9749664,7.88504673 C43.4089933,8.0861215 42.9287919,8.48462617 42.525302,8.75981308" id="Fill-31" sketch:type="MSShapeGroup"/>
            <path d="M43.6850336,58.0383178 C43.514698,58.0146262 43.5630201,57.7728505 43.5406711,57.6009346 C44.4672483,57.4630374 45.0289933,56.0749533 45.8595302,56.7261682 C45.2210738,57.251028 44.2159732,57.4059346 43.6850336,58.0383178" id="Fill-32" sketch:type="MSShapeGroup"/>
            <path d="M44.6997987,26.9835047 C45.6094631,27.183972 46.125906,27.1365888 46.7293289,27.4214953 C46.3252349,28.2233645 45.5224832,27.2331776 44.8447651,27.859486 C44.6702013,27.6328972 44.3814765,27.2908879 44.6997987,26.9835047" id="Fill-33" sketch:type="MSShapeGroup"/>
            <path d="M48.3239597,27.4214953 C48.3559732,26.8024766 49.2879866,26.793972 49.4836913,27.1299065 C49.4516779,27.5830841 48.7624832,27.3765421 48.3239597,27.4214953" id="Fill-34" sketch:type="MSShapeGroup"/>
            <path d="M49.9185906,26.9835047 C49.9004698,26.7228972 50.0961745,26.676729 50.063557,26.4009346 L51.0783221,26.4009346 C51.1900671,27.1785047 50.423557,27.2319626 49.9185906,26.9835047" id="Fill-35" sketch:type="MSShapeGroup"/>
            <path d="M52.9628859,28.0040654 C52.9224161,27.768972 53.1,27.753785 53.1078523,27.5672897 C55.0703356,27.8108879 56.5894631,25.6513084 58.3266443,25.6713551 C56.7042282,26.5248598 54.8885235,27.9402804 52.9628859,28.0040654" id="Fill-36" sketch:type="MSShapeGroup"/>
            <path d="M58.4716107,45.5 C59.0575168,44.485514 60.6424832,44.4757944 61.9508054,44.1878505 C60.9167114,44.7509813 59.8083221,45.241215 58.4716107,45.5" id="Fill-37" sketch:type="MSShapeGroup"/>
            <path d="M63.5454362,44.916215 C63.990604,44.3385047 64.7631544,44.1817757 65.5749664,44.3336449 C65.1775168,44.8080841 64.147047,44.6471028 63.5454362,44.916215" id="Fill-38" sketch:type="MSShapeGroup"/>
            <path d="M72.0984564,11.6757009 C70.312349,12.0669159 68.2459732,13.4379907 67.4595302,15.3205607 C68.0460403,12.5079439 71.661745,11.479486 74.4185235,10.3635514 C72.9863758,10.0914019 71.6327517,11.1581308 70.5038255,11.6757009 C71.6714094,10.3957477 74.8473826,9.38247664 77.0273154,9.78037383 C78.0765101,9.97172897 78.8013423,10.6794393 79.7816779,10.6551402 C80.1591946,11.5882243 81.5828859,11.4679439 81.5212752,12.8420561 C82.1089933,13.7575234 83.0712081,14.2969626 84.1312752,14.7373832 C84.8204698,16.0890187 85.6612752,17.7207009 85.1454362,19.8401869 C84.5202685,19.2478972 85.0457718,18.732757 85.0004698,18.0900467 C84.8307383,15.6899065 83.0808725,14.7252336 81.5212752,13.4252336 C81.5079866,14.3680374 81.9205369,15.1741589 81.9561745,16.6327103 C81.5798658,16.7195794 81.4348993,16.573785 81.5212752,16.1959346 C81.045906,17.1618224 80.9353691,18.2704673 80.3621477,19.111215 C79.9749664,19.6773832 79.8855705,20.4318692 79.3467785,21.1523364 C79.1371812,21.4323832 78.6171141,21.5854673 78.3320134,21.8807009 C77.6428188,22.5975234 77.0774497,23.5111682 77.4628188,24.0688318 C76.4184564,24.0390654 76.6926846,25.3354206 75.8675839,25.5255607 C75.9237584,25.0474766 76.2916107,24.8834579 76.4474497,24.505 C75.442953,24.5493458 75.3197315,25.6810748 74.8528188,26.2551402 C74.5502013,26.6263084 74.1545638,26.8237383 73.8380537,27.1299065 L73.8380537,27.7136916 C73.1494631,28.0411215 72.5345638,28.443271 72.3883893,29.316215 C71.7946309,29.1752804 71.459396,29.6770561 71.0836913,29.316215 C70.7828859,29.354486 71.0444295,29.9571028 70.7937584,30.0457944 C70.5225503,29.7602804 70.2628188,30.0008411 69.9239597,30.0457944 C69.8901342,29.5938318 69.5204698,29.4790187 69.344094,29.1704206 C68.9949664,29.1108879 69.029396,29.4371028 68.6192617,29.316215 C68.1106711,29.3569159 68.9834899,29.8599065 68.4742953,29.9 C67.7518792,29.8228505 67.0632886,28.5192056 66.2997987,28.0040654 C65.6087919,28.1170561 65.6565101,27.4858879 64.9951007,27.5672897 C65.0355705,27.235 64.9600671,27.0193458 64.7051678,26.9835047 C64.6586577,26.6457477 64.7287248,26.4240187 64.8501342,26.2551402 C63.4783893,22.9814486 65.9724161,20.7356075 66.4447651,17.653271 C67.0536242,17.0506542 67.5096644,16.2937383 67.7494631,15.3205607 C68.1100671,15.3430374 68.198255,15.0915421 68.4742953,15.028972 C69.4697315,13.6973832 70.6777852,12.5796262 72.0984564,11.6757009 L72.0984564,11.6757009 Z M77.7521477,11.0925234 C75.7304698,10.4388785 74.1092617,10.9819626 72.8232886,12.4046729 C70.6373154,13.3158879 69.615302,15.3989252 68.039396,16.9236916 C68.0448322,17.486215 67.568255,17.8713551 67.3145638,18.3816355 C66.847651,19.3214019 66.7087248,20.2775701 66.2997987,21.2981308 C66.0859732,21.8333178 65.5514094,22.3101869 65.43,22.9012617 C65.1751007,24.1435514 65.677651,25.362757 65.5749664,26.5473364 C66.2520805,27.3479907 67.0820134,27.3358411 68.3293289,27.7136916 C68.8856376,27.1548131 69.4431544,26.5983645 70.3588591,26.4009346 C70.9985235,25.7424299 71.1555705,24.6963551 72.0984564,24.2134112 C72.5665772,23.9734579 73.2225503,24.1028505 73.6930872,23.9224299 C75.2091946,23.3374299 76.2873826,22.1224766 77.6071812,21.2981308 C77.4060403,20.5126636 78.1598658,20.6870093 78.0426846,19.9859813 C78.8079866,19.8328972 79.0018792,19.1045327 79.6367114,18.8196262 C80.5318792,16.9783645 80.2969128,14.7556075 80.796443,12.9878505 C80.1984564,11.9041121 78.7614765,11.4187383 77.7521477,11.0925234 L77.7521477,11.0925234 Z M68.6192617,28.7336449 C68.3492617,28.7536916 68.1348322,28.8296262 68.039396,29.0258411 C68.2961074,28.9924299 68.7654362,29.1716355 68.6192617,28.7336449 L68.6192617,28.7336449 Z M69.6340268,28.2962617 L69.6340268,27.859486 L69.344094,27.859486 L69.344094,28.2962617 L69.6340268,28.2962617 L69.6340268,28.2962617 Z M74.5628859,25.9635514 C74.8491946,25.5219159 75.1475839,25.0924299 75.4326846,24.6514019 C73.9842282,24.8542991 71.8453691,25.1021495 71.8085235,26.5473364 C72.3702685,26.090514 72.8746309,25.5778037 73.6930872,25.3797664 C72.8075839,26.5303271 71.1471141,26.9021028 70.5038255,28.2962617 C72.0785235,27.8309346 73.0087248,25.9671963 74.5628859,25.9635514 L74.5628859,25.9635514 Z M73.9830201,26.4009346 C72.9054362,27.1639252 71.797651,27.8959346 70.7937584,28.7336449 C72.0253691,28.9079907 73.9697315,26.8723364 73.9830201,26.4009346 L73.9830201,26.4009346 Z M76.882953,23.3386449 C76.5259732,23.8100467 75.0026174,23.8738318 75.1427517,24.3592056 C75.7165772,24.1064953 77.1795302,23.9819626 76.882953,23.3386449 L76.882953,23.3386449 Z M79.3467785,20.423972 C78.9197315,20.3917757 78.4624832,21.0764019 78.7669128,21.2981308 C78.9318121,20.9779907 79.2519463,20.813972 79.3467785,20.423972 L79.3467785,20.423972 Z" id="Fill-39" sketch:type="MSShapeGroup"/>
            <path d="M66.0098658,15.3205607 C66.983557,13.9203271 67.8702685,11.036028 67.3145638,9.05140187 C67.8877852,8.81752336 67.8237584,10.5743458 67.7494631,11.3841121 C67.611745,12.8900467 66.8234899,14.8260748 66.0098658,15.3205607" id="Fill-40" sketch:type="MSShapeGroup"/>
            <path d="M67.7494631,12.4046729 C68.1257718,11.3731776 68.5588591,10.4006075 69.6340268,10.0725701 C68.94,10.7833178 68.5691275,11.8190654 67.7494631,12.4046729" id="Fill-41" sketch:type="MSShapeGroup"/>
            <path d="M68.3293289,43.6052804 C68.2828188,42.8149533 70.2887919,42.7292991 70.2138926,43.6052804 C69.412349,43.1338785 68.7895973,43.5791589 68.3293289,43.6052804" id="Fill-42" sketch:type="MSShapeGroup"/>
            <path d="M73.5481208,7.88504673 C73.2340268,7.90995327 73.4822819,7.36808411 73.4031544,7.15607477 C73.9304698,6.93130841 74.9675839,6.89546729 74.8528188,7.73925234 C74.3194631,7.38691589 73.9667114,7.46649533 73.5481208,7.88504673" id="Fill-43" sketch:type="MSShapeGroup"/>
            <path d="M74.9983893,39.8140187 C76.4685906,37.8646262 78.7330872,37.271729 81.0869799,36.4601402 C80.256443,37.2814486 78.9777181,37.5554206 77.8971141,38.064486 C76.792953,38.5850935 75.8826846,39.1227103 74.9983893,39.8140187" id="Fill-44" sketch:type="MSShapeGroup"/>
            <path d="M75.2877181,27.7136916 C75.352953,26.6609346 76.1756376,26.3705607 76.5924161,25.6713551 C77.1511409,25.7047664 76.2372483,26.5042056 76.0125503,26.6919159 C76.0711409,27.3352336 76.0518121,27.8971495 75.2877181,27.7136916" id="Fill-45" sketch:type="MSShapeGroup"/>
            <path d="M78.187047,39.9604206 C77.9291275,39.6159813 77.5407383,40.3686449 77.0273154,40.2507944 C77.2973154,39.3802804 78.7258389,39.3146729 79.2024161,39.0844393 C79.6789933,39.078972 79.5491275,38.4617757 80.0716107,38.5018692 C80.1211409,39.1342523 79.672953,39.2660748 79.2024161,39.3766355 C78.9155034,39.4774766 78.8158389,39.7654206 78.7669128,40.105 C77.714094,40.4719159 76.9252349,41.8278037 76.0125503,41.8551402 C76.6063087,41.0909346 77.4398658,40.5691121 78.187047,39.9604206" id="Fill-46" sketch:type="MSShapeGroup"/>
            <path d="M76.882953,28.8794393 C76.7675839,29.6460748 76.3985235,30.6095327 76.5924161,31.6489252 C76.0536242,31.290514 76.3055034,29.3635981 76.882953,28.8794393" id="Fill-47" sketch:type="MSShapeGroup"/>
            <path d="M77.4628188,27.859486 C77.3214765,27.8546262 77.3498658,27.6802804 77.3172483,27.5672897 C77.3432215,26.2812617 78.1163758,25.4484112 78.6225503,24.505 C79.1033557,23.6071495 79.3727517,22.5307009 80.2165772,21.8807009 C80.213557,22.6029907 79.5304027,23.3829907 79.0568456,24.2134112 C78.413557,25.3451402 77.8318792,26.3274299 77.4628188,27.859486" id="Fill-48" sketch:type="MSShapeGroup"/>
            <path d="M80.3621477,21.8807009 C80.6931544,20.7568692 81.1504027,19.7581776 81.6668456,18.8196262 C81.5973826,19.6263551 81.0531544,21.2136916 80.3621477,21.8807009" id="Fill-49" sketch:type="MSShapeGroup"/>
            <path d="M80.5071141,10.6551402 C81.0495302,10.0160748 82.2775168,9.91766355 82.3910738,10.946729 C82.372349,11.4138785 82.0624832,11.5882243 81.5212752,11.5299065 C81.3968456,11.0645794 81.7495973,11.0791589 81.8112081,10.8009346 C81.3720805,10.6229439 81.0344295,10.9230374 80.5071141,10.6551402" id="Fill-50" sketch:type="MSShapeGroup"/>
            <path d="M83.6957718,16.9236916 C83.7308054,16.6673364 83.9452349,16.5914019 84.2756376,16.6327103 C84.4218121,17.0707009 83.9530872,16.8902804 83.6957718,16.9236916" id="Fill-51" sketch:type="MSShapeGroup"/>
            <path d="M69.9239597,2.49065421 C70.4724161,2.66803738 70.425302,3.44378505 70.7937584,3.80280374 C73.6012752,3.95285047 76.9330872,4.52813084 79.491745,5.98971963 C81.3050336,5.96481308 81.8178523,7.24719626 83.2608725,7.59345794 C84.1578523,9.41345794 86.5328859,9.74635514 87.6104698,11.3841121 C88.2320134,11.245 88.1697987,11.7935514 88.6246309,11.8214953 L88.6246309,12.9878505 C89.8091275,14.9761215 89.5705369,17.6557009 89.7843624,19.111215 C89.2431544,19.9750467 88.8432886,20.982243 88.1897315,21.7349065 C87.6871812,21.813271 87.4177852,22.1249065 86.8850336,22.1722897 C86.7261745,22.5963084 86.7539597,23.2074299 86.5951007,23.6308411 C85.8726846,24.1186449 85.1248993,24.5821495 83.8407383,24.505 C83.2741611,24.9071495 82.8144966,25.4174299 82.3910738,25.9635514 C81.8299329,26.090514 81.8752349,25.6075701 81.5212752,25.5255607 C80.1247651,27.9506075 79.560604,31.8530374 80.2165772,34.1274299 C81.764698,33.9020561 83.3375839,34.4086916 84.5655705,35.1492056 C84.5468456,36.101729 84.1675168,36.6915888 84.1312752,37.6264953 C82.9552349,38.7284579 81.9175168,39.9695327 80.3621477,40.688785 C79.9810067,41.8126168 79.0707383,42.4030841 78.3320134,43.1672897 C78.6757047,46.4452336 76.6093289,47.7385514 75.8675839,50.311215 C74.5048993,51.9058411 72.5792617,52.9318692 71.2286577,54.5398598 C70.4947651,54.8958411 69.8822819,55.2038318 69.1991275,55.4140187 C68.0242953,55.7748598 66.9956376,56.8616355 66.0098658,57.1629439 C65.0579195,57.4551402 63.7320805,57.3075234 62.6756376,57.6009346 C62.0365772,57.7777103 60.2142282,58.1500935 59.0514765,58.0383178 C58.1472483,57.9508411 57.3632215,57.2971963 56.4420805,57.1629439 C55.5541611,57.0347664 54.6698658,57.3482243 53.8326846,57.3087383 C53.2848322,57.2838318 51.9668456,56.7371028 50.6434228,57.1629439 C50.4561745,57.5584112 49.8503356,57.5322897 49.7736242,58.0383178 C48.0080537,58.2284579 45.9809396,58.8073832 44.5548322,59.6414486 C42.0040268,60.0946262 39.6489262,60.4414953 37.1615436,60.8078037 C36.5647651,60.8971028 35.6116107,61.0975701 35.1320134,61.2457944 C34.7538926,61.3630374 34.4844966,61.6831776 34.1172483,61.8295794 C33.0662416,62.2457009 31.9113423,62.3884579 30.7830201,62.7037383 C30.2538926,62.8519626 29.7404698,63.1666355 29.1883893,63.2863084 C28.665302,63.401729 27.9954362,63.2863084 27.4487919,63.4321028 C27.1775839,63.5056075 26.9975839,63.8166355 26.7239597,63.8700935 C26.5572483,63.9022897 26.5101342,63.5961215 26.4340268,63.5785047 C26.3313423,63.5548131 25.6965101,63.8713084 25.7091946,63.8700935 C25.3600671,63.8986449 24.9197315,63.8002336 24.5494631,63.8700935 C24.1991275,63.9357009 23.8989262,64.2096729 23.534698,64.3080841 C21.8536913,64.7612617 19.755302,64.1112617 17.7360403,64.1622897 C16.3038926,64.1975234 15.1272483,64.5395327 14.1118792,64.4526636 C11.8679195,63.4053738 9.56053691,62.4212617 7.58838926,61.1 C6.50718121,59.3012617 5.92067114,56.133271 7.58838926,54.5398598 C8.19060403,54.7591589 8.74208054,55.0307009 8.60315436,55.9965888 C9.37328859,54.8278037 10.1204698,53.6353271 11.3575168,52.935514 C12.1475839,53.4482243 11.7144966,54.0866822 11.6474497,54.976028 C12.4157718,54.7293925 12.4985235,53.7908411 13.387047,53.6638785 C14.1831544,54.0842523 14.0122148,54.4280841 13.8219463,55.4140187 C14.5860403,54.4815421 14.8687248,53.0649065 16.2863758,52.7897196 C16.4120134,53.0029439 16.5038255,53.2514019 16.8662416,53.2277103 C16.7067785,53.9536449 16.2151007,54.4639252 16.5763087,54.976028 C17.123557,53.9712617 17.2473826,52.5418692 18.7508054,52.4975234 C19.0709396,53.3425234 19.3614765,54.2160748 19.620604,55.1224299 C20.3478523,53.9585047 20.6873154,52.403972 21.6501342,51.4775701 C21.9261745,51.5401402 22.0143624,51.7916355 22.3749664,51.7691589 C22.5827517,52.4203738 22.2946309,52.7885047 22.3749664,53.6638785 C22.6661074,53.6140654 22.8279866,53.6936449 22.8098658,53.9560748 C23.2338926,52.6815888 23.7291946,51.478785 24.839396,50.895 C25.8849664,50.9114019 25.3165772,52.5521963 25.8541611,53.0813084 C26.391745,52.455 26.5669128,51.4654206 27.4487919,51.1853738 C28.0202013,51.0978972 28.0908725,51.5115888 28.1736242,51.9149533 C28.6405369,51.6069626 28.8652349,51.0547664 29.4783221,50.895 C29.9156376,51.0857477 29.9609396,51.6719626 30.2031544,52.0613551 C30.8422148,51.3907009 30.9503356,50.1878972 32.2326846,50.1654206 C32.7328188,50.7807944 33.074094,51.5547196 33.3924161,52.351729 C36.3195302,52.4683645 39.0871812,50.9660748 41.3655705,49.5828505 C44.0269128,49.0792523 45.9833557,47.2890187 48.1789933,45.7915888 C49.3828188,44.9708879 50.9158389,44.6750467 51.8031544,43.4588785 C53.8381208,42.6418224 56.7326174,42.4352804 58.9065101,41.2713551 C62.0021477,41.3734112 64.9280537,40.1122897 68.039396,39.2308411 C67.5489262,38.1683645 66.4133557,37.7558879 66.0098658,36.6059346 C66.1107383,36.0707477 66.2599329,35.4978972 66.0098658,35.0034112 C65.1467114,34.4621495 64.2436913,33.9603738 64.125302,32.6707009 C63.2059732,32.525514 62.5820134,32.084486 61.9508054,31.6489252 C59.2713423,32.2788785 56.6673826,32.566215 53.2528188,32.2327103 C51.7886577,32.0893458 50.3885235,31.6999533 48.9038255,31.5043458 C46.3904698,31.1720561 43.2724832,31.7297196 40.7857047,31.6489252 C40.4063758,31.7546262 40.2922148,32.1245794 39.9165101,32.2327103 C39.5867114,31.981215 39.105906,31.8803738 38.4662416,31.9411215 C37.6610738,32.6196729 38.7247651,36.0069626 37.8863758,36.751729 C36.3316107,36.2748598 35.7958389,34.7731776 34.987047,33.5448598 C34.5974497,34.5593458 35.1356376,35.4432243 34.4071812,36.1691589 C33.1344966,35.6509813 32.9454362,34.0429907 31.9427517,33.253271 C32.0424161,32.6670561 31.8038255,32.4216355 31.7977852,31.9411215 C31.2825503,32.7168692 31.8285906,33.5108411 31.9427517,34.4196262 C30.4296644,35.6534112 29.1980537,33.592243 28.463557,32.6707009 C28.0516107,33.3729439 28.2340268,34.6747664 27.1588591,34.711215 C26.6708054,34.1335047 26.1706711,33.5673364 25.8541611,32.8152804 C25.3884564,32.9768692 25.9073154,34.2379907 25.1293289,34.4196262 C24.3428859,34.4809813 24.3839597,33.7113084 24.1145638,33.253271 C23.782349,33.4537383 23.648255,33.8534579 23.3897315,34.1274299 C22.5084564,33.7501869 22.1218792,32.876028 21.3602013,32.3785047 C21.1626846,32.6658411 21.2218792,33.2113551 21.0702685,33.5448598 C19.733557,33.5284579 19.6224161,32.2788785 19.0407383,31.5043458 C18.6173154,31.7096729 18.8873154,32.6135981 18.315906,32.6707009 C17.1833557,32.253972 16.6711409,31.2133645 16.2863758,30.0457944 C15.9287919,30.8531308 15.5947651,31.6835514 15.4165772,32.6707009 C14.9587248,32.5984112 14.9043624,32.9325234 14.4018121,32.8152804 C14.2447651,31.8566822 13.5652349,31.4211215 13.387047,30.4825701 C13.0862416,31.056028 13.1798658,32.0237383 12.6622148,32.3785047 C11.8648993,32.4507944 11.9983893,31.5881776 11.6474497,31.2121495 C11.43,31.603972 11.677651,32.0176636 11.2125503,32.3785047 C10.3385235,32.1403738 9.97731544,31.3846729 9.47295302,30.7747664 C9.03020134,30.8148598 9.15463087,31.4271963 8.74812081,31.5043458 C7.7309396,31.2145794 7.52194631,30.1126168 6.86355705,29.4620093 C6.36161074,29.7469159 7.04114094,30.0445794 7.00852349,30.3367757 C6.8961745,30.7850935 6.2257047,31.0013551 5.99375839,31.0663551 C5.23208054,31.1034112 5.18738255,30.42 4.83402685,30.0457944 C4.46255034,30.0603738 4.60147651,30.589486 4.39912752,30.7747664 C3.84463087,30.797243 3.51362416,30.3878037 2.94946309,30.7747664 C0.963422819,29.4492523 -0.236174497,26.9507009 0.050738255,23.7766355 C0.200536913,23.8203738 0.152214765,23.6970561 0.195100671,23.6308411 C1.66832215,21.3540187 4.07778523,20.2016355 5.26892617,17.653271 C5.43744966,17.5311682 5.65791946,17.4613084 5.99375839,17.5074766 C6.68959732,16.4571495 8.06979866,16.0963084 8.89308725,15.1747664 C9.73812081,15.3764486 10.484698,14.95 11.3575168,14.7373832 C11.7712752,14.6365421 12.1808054,14.4652336 12.6622148,14.1542056 C13.3344966,14.2981776 14.3897315,14.3449533 15.2716107,14.1542056 C15.7300671,14.0551869 16.0055034,13.7131776 16.4313423,13.571028 C17.3772483,13.2563551 18.5079866,13.2496729 19.4756376,12.9878505 C20.5622819,12.6938318 21.4586577,12.1665421 22.23,11.6757009 C23.0889262,11.6021963 23.6953691,11.465514 24.4044966,11.0925234 C24.6624161,10.9570561 24.8502685,10.5700935 24.9843624,10.5093458 C25.3389262,10.3495794 26.0577181,10.750514 26.144094,10.0725701 C28.6320805,9.74817757 30.6072483,8.65714953 32.377651,8.03084112 C38.2808054,7.93364486 41.6730201,4.52691589 47.0192617,2.92803738 C47.339396,2.66621495 47.7857718,2.53257009 47.8890604,2.05327103 C48.9883893,2.47485981 49.7687919,1.44640187 50.6434228,1.17850467 C50.8904698,1.10317757 51.2232886,1.22528037 51.5132215,1.17850467 C52.3552349,1.04242991 53.3283221,0.351121495 53.977651,0.303738318 C54.9,0.236915888 55.5728859,0.845 56.4420805,1.03271028 C57.082349,1.17121495 57.7322819,0.989579439 58.3266443,1.03271028 C60.3181208,1.17668224 62.3065772,1.34859813 64.4152349,1.03271028 C64.9642953,1.11228972 65.0681879,1.64018692 65.43,1.90747664 C66.5498658,1.44397196 67.3061074,2.52528037 68.1843624,2.78285047 C68.7998658,2.67350467 69.5434228,2.41350467 69.9239597,2.49065421 L69.9239597,2.49065421 Z M85.725302,21.2981308 C85.8455034,20.8850467 85.5211409,20.9196729 85.5803356,20.5685514 C86.1251678,20.162757 86.6784564,20.319486 87.1755705,20.423972 C88.3038926,18.6215888 88.6620805,15.1680841 87.4648993,12.8420561 C87.4781879,12.6124299 87.8345638,12.7284579 87.7554362,12.4046729 C86.1257718,11.6131308 85.1412081,10.1740187 83.4058389,9.48939252 C82.733557,8.10434579 81.0187248,7.73621495 80.2165772,6.86448598 C79.2308054,7.09107477 78.4365101,6.28799065 77.3172483,5.98971963 C76.8225503,5.8578972 76.1641611,6.00186916 75.578255,5.84453271 C75.3100671,5.77163551 74.8214094,5.40654206 74.272953,5.26135514 C73.4901342,5.05299065 71.122953,5.26014019 70.3588591,4.38598131 C70.2954362,4.31369159 70.0036913,4.44369159 69.9239597,4.38598131 C69.5053691,4.08345794 69.9432886,3.46929907 69.4896644,3.51121495 C68.9708054,4.16911215 69.9704698,4.2614486 69.6340268,4.67757009 C68.8403356,4.70247664 68.5951007,3.98443925 69.0541611,3.51121495 C67.7851007,3.63696262 65.6915436,4.03182243 65.5749664,2.78285047 C64.8724832,3.40308411 64.7377852,2.37158879 63.9803356,2.1996729 C63.4222148,2.07271028 62.8477852,2.34728972 62.2413423,2.34485981 C60.6557718,2.33878505 59.0508725,2.11280374 58.0373154,1.76168224 C57.2321477,2.30962617 56.272953,1.66691589 55.4273154,1.61649533 C53.0685906,1.47373832 51.0130872,2.37766355 49.7736242,3.07383178 C46.7371812,4.7814486 42.7137584,5.48308411 40.0608725,7.44766355 C37.3560403,7.74897196 35.0220805,9.25672897 32.377651,9.63457944 C30.8645638,9.85084112 30.2122148,10.426729 29.0434228,10.8009346 C28.4774497,10.9825701 27.8178523,10.9102804 27.3038255,11.0925234 C27.0730872,11.1745327 26.8405369,11.4229907 26.5789933,11.5299065 C24.8551007,12.2351869 23.3402013,12.8007477 21.7957047,13.2794393 C20.136443,13.7933645 17.9975839,14.3358411 16.7212752,14.7373832 C16.020604,14.9578972 15.0644295,14.9153738 14.2568456,15.1747664 C13.9228188,15.2822897 13.6914765,15.5678037 13.387047,15.6121495 C12.9068456,15.6820093 12.3136913,15.3940654 11.7924161,15.4663551 C9.36845638,15.8016822 7.59322148,17.5700467 5.55885906,18.8196262 L5.55885906,19.4021963 C4.06449664,20.9123832 2.29530201,22.1461682 1.06489933,23.9224299 C1.32221477,24.6678037 0.783422819,25.2643458 1.35483221,25.9635514 C1.79758389,25.9702336 1.70275168,25.4374766 2.22463087,25.5255607 C2.46020134,26.5515888 3.20496644,25.765514 3.81926174,25.8171495 C3.52812081,26.1154206 3.88328859,26.103271 3.96422819,26.4009346 C4.53744966,26.3942523 4.80503356,26.0795794 5.26892617,25.9635514 C5.6542953,26.2563551 6.27463087,26.3134579 6.13872483,27.1299065 C6.81342282,27.1772897 6.9457047,26.6773364 7.44342282,26.5473364 C10.2648322,26.727757 13.6208054,27.3680374 16.7212752,28.0040654 C17.1748993,27.8285047 17.4406711,27.4640187 18.1715436,27.5672897 C18.6432886,27.7574299 18.9549664,28.197243 19.4756376,28.2962617 C19.7981879,28.3576168 20.1624161,27.9469626 20.4904027,28.0040654 C20.7857718,28.0563084 21.0932215,28.391028 21.3602013,28.4420561 C21.5498658,28.4785047 21.6265772,28.1097664 21.7957047,28.1498598 C22.0795973,28.2191121 22.2028188,28.5295327 22.5199329,28.5878505 C23.8850336,28.8357009 25.7544966,28.0575234 26.8689262,29.316215 C26.4207383,30.4400467 26.7112752,31.5978972 27.1588591,32.5242991 C28.3427517,32.306215 28.0963087,30.6478037 28.7534899,29.9 C28.3228188,29.5142523 26.753557,29.6345327 27.1588591,28.8794393 C29.4891946,29.3708879 30.1294631,29.2761215 32.6681879,29.4620093 L32.6681879,29.9 C34.5310067,28.5568692 36.6227517,31.3403271 38.3212752,30.1921963 C38.6667785,30.4752804 39.0720805,30.7000467 39.6259732,30.7747664 C44.7922148,29.7256542 48.7854362,31.0487383 53.977651,30.6283645 C54.5454362,31.2728972 56.0198658,31.005 56.8769799,31.3585514 C57.4157718,31.4138318 57.2557047,30.7674766 57.891745,30.9205607 C58.2396644,30.862243 57.8114094,31.5851402 58.3266443,31.3585514 C59.0424161,31.2328037 59.422349,31.3700935 60.0662416,30.7747664 C60.8889262,30.9752336 61.7430201,30.7790187 62.6756376,30.9205607 C62.8665101,30.9491121 62.8048993,31.173271 62.9655705,31.2121495 C63.2174497,31.2741121 64.0087248,31.3464019 64.4152349,31.3585514 C64.8271812,31.3700935 65.4040268,31.5231776 65.5749664,31.0663551 C64.7486577,30.8810748 65.7857718,30.3726168 65.5749664,29.9 C66.51,30.0767757 66.0183221,29.6649065 66.2997987,29.316215 C66.7244295,29.3271495 66.8385906,29.6497196 67.0246309,29.9 C66.6380537,30.2596262 67.0820134,30.914486 66.2997987,31.0663551 C66.5347651,30.9618692 66.5347651,31.7534112 66.2997987,31.6489252 C65.6661745,31.6440654 64.9896644,31.5954673 64.7051678,31.9411215 C65.564094,32.1640654 67.027651,33.3869159 67.4595302,31.9411215 C68.8898658,32.1057477 68.5914765,34.0101869 70.2138926,33.9816355 C70.3165772,34.6079439 70.8173154,34.8333178 71.2286577,35.1492056 C71.2147651,34.4730841 70.6433557,33.8036449 70.2138926,33.3990654 C69.8557047,33.0607009 69.2426174,33.1821963 69.0541611,32.6707009 C70.3872483,32.5601402 71.393557,33.9992523 71.8085235,35.293785 C73.0147651,34.2392056 75.4242282,34.9341589 76.7379866,35.4395794 C76.0252349,36.0914019 75.6078523,35.2378972 74.5628859,35.4395794 C74.2687248,35.8004206 75.0213423,36.0106075 74.272953,36.1691589 C74.1430872,35.7421028 74.1430872,35.7208411 74.272953,35.293785 C73.6556376,35.2828505 73.259396,35.0507944 72.5339597,35.1492056 C72.3877852,35.3423832 72.3962416,35.6910748 72.0984564,35.7317757 C72.1944966,36.4042523 72.8788591,36.2621028 72.5339597,37.0439252 C73.5988591,37.0414953 74.4632215,36.2724299 75.4326846,36.0233645 C75.712953,35.9510748 75.9702685,36.0768224 76.3030872,36.0233645 C77.512349,35.827757 78.3712752,34.8120561 79.491745,35.293785 C79.5304027,34.333972 78.9565772,33.3978505 78.9118792,32.3785047 C78.7928859,29.638785 80.392953,25.5134112 80.796443,22.6102804 C81.2047651,22.0975701 82.0818121,22.0562617 82.6810067,21.7349065 C82.3934899,21.6364953 82.35,21.2908411 82.1011409,21.1523364 C82.5873826,20.5211682 83.5338926,19.5826168 84.2756376,19.693785 C83.835302,20.2721028 83.0313423,20.4841121 82.6810067,21.1523364 C83.0331544,21.3813551 83.2246309,21.7725701 83.2608725,22.3186916 C82.2026174,22.1485981 81.9326174,23.0743925 81.3763087,23.7766355 C82.2352349,23.3398598 83.0452349,22.463271 83.8407383,22.0264953 C84.24,21.8084112 84.8077852,21.1711682 85.0004698,21.8807009 C84.5957718,22.0088785 84.284698,22.2293925 83.8407383,22.3186916 C83.5689262,23.1642991 81.854698,23.3319626 82.1011409,24.2134112 C82.755906,23.5597664 83.969396,23.4680374 85.2910067,23.4850467 C85.3713423,23.2748598 85.5169128,23.1290654 85.725302,23.0470561 C85.4287248,21.5344393 86.6524832,21.5496262 87.1755705,20.8601402 C86.6971812,20.6493458 86.0871141,20.7580841 85.725302,21.2981308 L85.725302,21.2981308 Z M88.6246309,16.9236916 C88.0326846,18.4508879 88.4778523,20.1603271 87.1755705,20.8601402 C88.3878523,20.9482243 89.1193289,18.551729 88.6246309,16.9236916 L88.6246309,16.9236916 Z M2.07966443,28.5878505 C1.8833557,27.6480841 2.12557047,26.9421963 2.07966443,26.4009346 C1.73053691,26.3407944 1.76436242,26.6670093 1.35483221,26.5473364 C1.02442953,27.4512617 1.77885906,27.9032243 2.07966443,28.5878505 L2.07966443,28.5878505 Z M2.6595302,27.5672897 C2.74832215,27.5593925 2.83107383,27.5448131 2.80449664,27.4214953 C2.55684564,27.3753271 2.93798658,26.9707477 2.51456376,26.8377103 C2.39315436,27.0071963 2.32369128,27.2295327 2.36959732,27.5672897 L2.6595302,27.5672897 L2.6595302,27.5672897 Z M3.81926174,29.0258411 C3.9261745,28.5890654 3.82409396,27.3564953 4.39912752,26.9835047 C3.75463087,27.0491121 3.63201342,26.5886449 3.23939597,26.4009346 C2.85644295,27.3109346 3.46107383,28.3849533 3.81926174,29.0258411 L3.81926174,29.0258411 Z M5.26892617,29.0258411 C5.25201342,28.4608879 5.0557047,27.5770093 5.12395973,26.9835047 C5.14449664,26.806729 5.66516779,26.4307009 5.12395973,26.5473364 C4.75067114,27.2398598 4.76758389,28.4220093 5.26892617,29.0258411 L5.26892617,29.0258411 Z M5.84879195,29.316215 C6.03060403,28.7707009 5.98530201,27.9955607 6.28369128,27.5672897 C5.86087248,27.6043458 5.78355705,27.2921028 5.55885906,27.1299065 C5.59932886,27.9153738 5.40966443,28.9316822 5.84879195,29.316215 L5.84879195,29.316215 Z M11.3575168,57.746729 C10.8658389,56.9776636 11.138255,55.4401402 10.6326846,54.6844393 C10.1621477,55.4128037 9.81362416,56.4169626 10.0528188,57.4551402 C9.43187919,57.9757477 9.12201342,57.2984112 8.45818792,57.6009346 C8.34583893,57.1307477 8.15496644,56.7395327 7.87832215,56.4345794 C7.6590604,56.8452336 7.52798658,57.3457944 7.58838926,58.0383178 C9.11959732,57.8961682 10.1657718,57.5213551 11.3575168,57.746729 L11.3575168,57.746729 Z M7.7333557,58.6214953 C8.12778523,59.7386449 8.87738255,59.8880841 9.61791946,60.5174299 C10.2757047,61.0757009 10.7160403,61.8222897 11.3575168,62.2663551 C11.9627517,62.2329439 12.0418792,62.503271 12.5172483,62.2663551 C13.2203356,63.4321028 14.6301342,63.3731776 15.8514765,63.2863084 C18.0549664,63.1307944 20.6673826,63.6908879 22.5199329,63.4321028 C23.0744295,63.3549533 23.6446309,63.0919159 24.2595302,62.9959346 C24.818255,62.9066355 25.4681879,62.9600935 25.9991275,62.8495327 C27.337651,62.5688785 28.6079195,61.9279907 29.9132215,61.6831776 C31.7422148,61.3405607 33.5748322,61.2573364 34.987047,60.2252336 C36.0912081,60.0399533 37.1083893,59.943972 38.0313423,59.9336449 C39.4024832,59.9178505 40.6618792,59.5217757 41.9454362,59.2046729 C42.8158389,58.9902336 43.7061745,58.826215 44.5548322,58.6214953 C45.4626846,58.4015888 46.2763087,57.8439252 47.0192617,57.6009346 C47.6921477,57.3804206 48.4677181,57.3992523 48.9038255,57.1629439 C49.432953,56.8768224 49.6963087,56.2116355 50.2085235,55.9965888 C50.5540268,55.8520093 51.5524832,55.8161682 52.2380537,55.8507944 C52.9357047,55.887243 53.6985906,56.2614486 54.5575168,56.288785 C55.6979195,56.3240187 56.5846309,56.2705607 57.3118792,56.4345794 C57.9702685,56.5828037 58.7995973,56.4546262 59.3414094,56.5803738 C59.7165101,56.667243 59.9798658,56.992243 60.3561745,57.0183645 C61.470604,57.0930841 62.4926174,56.4868224 63.8353691,56.288785 C64.3808054,56.2079907 64.9775839,56.4546262 65.5749664,56.288785 C65.7114765,56.250514 66.0551678,55.9157944 66.4447651,55.706215 C66.7999329,55.5136449 67.3532215,55.4213084 67.6044966,55.2682243 C67.7391946,55.186215 67.7277181,54.9073832 67.8944295,54.8302336 C68.5202013,54.5410748 69.1804027,54.5975701 69.6340268,54.3934579 C70.1226846,54.1741589 70.83,53.482243 71.5185906,52.935514 C72.1721477,52.4173364 73.0334899,51.9398598 73.5481208,51.4775701 C73.7450336,51.3007944 74.677651,50.3549533 74.7078523,50.311215 C74.9633557,49.945514 74.9591275,49.2657477 75.2877181,48.7068692 C75.375906,48.5586449 75.7195973,48.4602336 75.8675839,48.2700935 C76.365906,47.631028 76.522349,46.8321963 76.882953,45.9379907 C77.3148322,44.862757 77.6416107,44.317243 77.4628188,42.7292991 C78.6962416,42.0404206 79.2054362,40.5581776 80.3621477,39.5224299 C81.0634228,38.8936916 82.1548993,38.6585981 82.6810067,37.9180841 C82.9268456,37.5730374 82.8748993,37.0676168 83.115906,36.751729 C82.688255,36.5992523 82.8869799,35.8156075 82.6810067,35.4395794 C81.9839597,35.3636449 81.6420805,34.930514 80.9414094,34.8570093 C80.4805369,35.073271 80.4316107,35.7044393 80.0716107,36.0233645 C77.7654362,36.3520093 74.677047,37.1824299 72.3883893,38.3560748 C72.1377181,38.4441589 72.3998658,39.0479907 72.0984564,39.0844393 C71.3077852,39.9069626 70.1154362,39.6633645 69.1991275,39.9604206 C68.3039597,40.2483645 67.342953,40.5891589 66.2997987,40.8345794 C64.5614094,41.2440187 62.7058389,41.9584112 60.9360403,42.2931308 C60.3549664,42.4018692 59.7696644,42.2998131 59.196443,42.4389252 C58.3816107,42.6345327 57.4997315,43.161215 56.587047,43.4588785 C54.5569128,44.121028 53.0649664,44.811729 51.3688591,45.5 C49.814094,46.1299533 48.6591946,46.6554206 47.5991275,47.3947196 C45.9827517,48.5228037 44.033557,49.6229439 42.3803356,50.4570093 C41.5449664,50.8779907 40.6981208,51.2011682 39.7709396,51.3311682 C36.8969799,53.623785 31.6951007,53.688785 28.1736242,55.706215 C27.8371812,55.7523832 27.6167114,55.6825234 27.4487919,55.5598131 C26.5638926,56.4497664 25.4138255,56.3124766 24.1145638,55.9965888 C23.3226846,56.9971028 22.23,56.6265421 21.2152349,56.8725701 C21.0189262,56.9199533 21.1802013,57.1003738 21.0702685,57.1629439 C20.9766443,57.2176168 20.7483221,57.0286916 20.7803356,57.0183645 C20.4112752,57.1465421 20.4281879,57.2303738 20.2004698,57.3087383 C19.2201342,57.6471028 18.6698658,57.6100467 17.7360403,57.6009346 C15.9662416,57.5827103 14.4205369,58.2971028 13.0971141,58.3292991 C13.004698,59.0600935 14.1390604,59.3164486 13.8219463,59.787243 C12.9189262,59.7234579 13.0433557,58.6269626 12.8071812,57.8925234 C12.1125503,57.8749065 11.5048993,57.9435514 11.2125503,58.3292991 C9.72241611,57.9423364 8.70161074,58.5157944 7.7333557,58.3292991 L7.7333557,58.6214953 L7.7333557,58.6214953 Z M8.45818792,29.6084112 C8.36818792,28.496729 8.87073826,27.9828037 9.03805369,27.1299065 C8.39053691,27.0278505 8.10120805,26.9507009 7.7333557,27.1299065 C7.79013423,28.1419626 7.74785235,29.2536449 8.45818792,29.6084112 L8.45818792,29.6084112 Z M8.89308725,60.6632243 L8.89308725,60.371028 L8.60315436,60.371028 L8.60315436,60.6632243 L8.89308725,60.6632243 L8.89308725,60.6632243 Z M9.47295302,56.288785 C9.4252349,56.628972 9.29899329,56.8914019 9.18302013,57.1629439 C9.58771812,57.265 9.79610738,56.4382243 9.47295302,56.288785 L9.47295302,56.288785 Z M9.47295302,60.9535981 C9.66563758,61.6764953 10.1579195,61.1814019 9.47295302,60.9535981 L9.47295302,60.9535981 Z M9.76288591,29.0258411 C10.1585235,28.2853271 9.25731544,28.4821495 9.76288591,29.0258411 L9.76288591,29.0258411 Z M10.6326846,30.3367757 C10.6767785,29.0695794 11.0627517,28.145 11.6474497,27.4214953 C10.9238255,27.4998598 10.8259732,27.1013551 10.3427517,27.4214953 C10.2509396,28.1905607 9.80395973,29.3957944 10.6326846,30.3367757 L10.6326846,30.3367757 Z M12.082349,57.4551402 L12.082349,56.8725701 C11.812349,56.8926168 11.5979195,56.9673364 11.5024832,57.1629439 C11.7169128,57.2388785 11.8679195,57.3792056 12.082349,57.4551402 L12.082349,57.4551402 Z M11.9373826,28.7336449 C11.7640268,29.8240654 12.3813423,29.2038318 11.9373826,28.7336449 L11.9373826,28.7336449 Z M12.2273154,56.288785 C11.8667114,56.1508879 12.1850336,57.1228505 12.2273154,56.5803738 C12.2140268,56.342243 12.4689262,55.9455607 12.2273154,56.288785 L12.2273154,56.288785 Z M12.3722819,28.0040654 L12.3722819,27.7136916 L12.082349,27.7136916 L12.082349,28.0040654 L12.3722819,28.0040654 L12.3722819,28.0040654 Z M13.6769799,57.6009346 C12.824094,57.2826168 13.4263087,56.3276636 12.8071812,55.706215 C12.6048322,56.1830841 12.4151678,56.6727103 12.3722819,57.3087383 C12.9497315,57.2352336 13.455302,58.2157009 13.6769799,57.6009346 L13.6769799,57.6009346 Z M12.6622148,29.9 C12.825302,29.1406542 13.3906711,28.7858879 13.387047,27.859486 C12.9436913,27.963972 12.8591275,27.7100467 12.5172483,27.7136916 C12.4538255,28.5392523 12.2526846,29.2797664 12.6622148,29.9 L12.6622148,29.9 Z M14.691745,57.6009346 C14.5020805,57.4393458 14.6301342,56.2195327 14.4018121,56.5803738 C14.5522148,57.3148131 14.2538255,57.5972897 13.8219463,57.746729 C14.265302,57.8524299 14.3498658,57.5972897 14.691745,57.6009346 L14.691745,57.6009346 Z M14.8367114,31.0663551 C14.5425503,30.9740187 14.7412752,30.3841589 14.4018121,30.3367757 C14.3377852,30.706729 14.6875168,31.3913551 14.8367114,31.0663551 L14.8367114,31.0663551 Z M15.1266443,30.4825701 C15.1314765,29.5154673 15.8762416,29.2925234 15.996443,28.4420561 C15.682953,28.3199533 15.502349,28.0648131 14.9816779,28.1498598 C14.8361074,28.9565888 14.4990604,29.9024299 15.1266443,30.4825701 L15.1266443,30.4825701 Z M17.3011409,57.3087383 C17.234698,56.7966355 16.6705369,57.0268692 16.4313423,56.8725701 C15.6002013,56.3349533 15.681745,55.1698131 15.5615436,54.3934579 C14.8578523,55.1102804 15.0040268,56.5530374 14.8367114,57.4551402 C15.7554362,57.2303738 16.2356376,57.1416822 17.3011409,57.3087383 L17.3011409,57.3087383 Z M17.3011409,29.9 C17.1253691,29.638785 17.2745638,29.0519626 17.0112081,28.8794393 C17.1163087,29.210514 16.7502685,30.0166355 17.3011409,29.9 L17.3011409,29.9 Z M18.1715436,30.9205607 C18.2609396,30.0391121 18.3726846,29.1801402 18.7508054,28.5878505 C18.4089262,28.0502336 17.9637584,28.0885047 17.4461074,28.0040654 C17.4714765,29.1941121 17.4056376,30.4752804 18.1715436,30.9205607 L18.1715436,30.9205607 Z M17.7360403,57.0183645 C18.563557,57.4569626 19.6773826,57.1927103 20.2004698,56.5803738 C18.9350336,56.8652804 18.9144966,54.9407944 18.1715436,54.2476636 C17.9607383,55.0367757 17.2461745,56.0002336 17.7360403,57.0183645 L17.7360403,57.0183645 Z M20.4904027,31.9411215 C20.3689933,31.2814019 19.7601342,30.3471028 19.4756376,30.3367757 C19.9002685,30.7850935 19.7951678,31.7649533 20.4904027,31.9411215 L20.4904027,31.9411215 Z M20.7803356,31.0663551 C20.43,30.3319159 21.1361074,29.2560748 20.925302,28.7336449 C20.8153691,29.0197664 20.4620134,28.3375701 19.9105369,28.5878505 C19.5674497,29.5039252 20.002953,30.8008879 20.7803356,31.0663551 L20.7803356,31.0663551 Z M21.6501342,56.1423832 C22.2608054,56.8342991 23.6174497,55.8319626 24.4044966,55.4140187 C25.5388591,56.1830841 26.9045638,55.6053738 27.7387248,54.976028 C27.8516779,55.0082243 27.9072483,55.0987383 27.8836913,55.2682243 C28.8604027,54.9383645 29.8673154,54.638271 30.6380537,54.1018692 C29.2632886,54.3916355 29.6565101,53.3698598 29.1883893,52.351729 C29.0404027,53.1384112 29.4197315,54.1541121 29.1883893,54.5398598 C28.6115436,54.5848131 28.9679195,53.691215 28.6085235,53.5180841 C28.2279866,53.963972 28.8314094,54.7354673 28.3185906,54.8302336 C27.3455034,54.7403271 27.3690604,53.6474766 27.1588591,52.7897196 C26.7861745,53.6061682 26.6732215,54.5173832 26.4340268,55.1224299 C26.0516779,54.8788318 26.1271812,54.5410748 25.7091946,54.976028 C25.514698,54.0058879 24.8412081,53.5168692 24.839396,52.351729 C24.0451007,52.8170561 23.9104027,53.9451402 23.9695973,55.2682243 C23.1136913,54.8423832 23.4857718,55.7614953 22.9548322,55.9965888 C21.6030201,55.6229907 21.803557,54.5671963 21.3602013,53.3735047 C20.9718121,54.0259346 20.8721477,55.1388318 20.6353691,56.288785 C20.4438926,56.2875701 20.5030872,56.0336449 20.3454362,55.9965888 L20.3454362,56.5803738 C20.9669799,56.6228972 21.3034228,56.3774766 21.6501342,56.1423832 L21.6501342,56.1423832 Z M21.2152349,29.316215 C21.2744295,29.6673364 20.9506711,29.6333178 21.0702685,30.0457944 C21.5081879,30.2705607 21.4514094,29.2913084 21.2152349,29.316215 L21.2152349,29.316215 Z M22.9548322,32.5242991 C22.9783893,31.2941589 23.1118792,31.2085047 23.2447651,29.7542056 C23.3891275,29.4443925 23.9925503,29.210514 23.6796644,28.8794393 C23.1330201,28.9936449 22.4516779,29.1345794 21.9400671,28.8794393 C21.5601342,30.2535514 22.0644966,31.9465888 22.9548322,32.5242991 L22.9548322,32.5242991 Z M22.5199329,55.4140187 C22.5978523,54.898271 22.3973154,54.6631776 22.0850336,54.5398598 C22.0777852,54.9833178 22.2167114,55.2809813 22.5199329,55.4140187 L22.5199329,55.4140187 Z M24.6944295,29.316215 C24.570604,30.1065421 24.4739597,31.1520093 25.1293289,31.7947196 C25.1166443,30.6642056 25.7877181,30.2213551 25.8541611,29.1704206 C25.4947651,28.9486916 24.7300671,29.1345794 24.4044966,28.8794393 C24.4051007,29.2688318 23.9466443,29.1965421 23.9695973,29.6084112 C24.4153691,29.7171495 24.2480537,29.2080841 24.6944295,29.316215 L24.6944295,29.316215 Z M24.5494631,31.9411215 C24.3863758,31.5219626 24.5198658,30.8039252 24.2595302,30.4825701 C24.2021477,31.0214019 24.0052349,31.5407944 24.5494631,31.9411215 L24.5494631,31.9411215 Z M24.839396,32.6707009 C24.8061745,32.4119159 24.9855705,31.9399065 24.5494631,32.0869159 C24.5089933,32.4192056 24.5844966,32.6348598 24.839396,32.6707009 L24.839396,32.6707009 Z M26.5789933,29.4620093 C26.123557,29.4419626 26.0806711,29.836215 25.9991275,30.1921963 C26.3754362,30.1326636 26.4177181,29.7378037 26.5789933,29.4620093 L26.5789933,29.4620093 Z M27.0138926,32.9610748 C27.0501342,32.7095794 26.7408725,32.0984579 26.5789933,32.5242991 C26.8532215,32.5400935 26.6792617,33.006028 27.0138926,32.9610748 L27.0138926,32.9610748 Z M30.6380537,33.5448598 C30.6416779,32.2150935 30.8379866,30.5250935 31.9427517,29.9 C30.4381208,29.9485981 30.2110067,29.5178972 29.1883893,29.9 C29.2391275,31.4174766 29.363557,32.9313084 30.6380537,33.5448598 L30.6380537,33.5448598 Z M31.072953,9.48939252 C30.6271812,9.67163551 29.9748322,9.64733645 29.768255,10.0725701 C30.1687248,9.97658879 31.8056376,9.32901869 31.072953,9.48939252 L31.072953,9.48939252 Z M33.3924161,53.2277103 C32.3897315,53.1657477 32.4344295,52.0516355 31.7977852,51.6233645 C31.252349,52.2405607 30.8718121,53.0248131 30.7830201,54.1018692 C31.7772483,53.6140654 32.5818121,53.7604673 33.3924161,53.2277103 L33.3924161,53.2277103 Z M33.3924161,8.90621495 C32.7062416,8.89588785 32.0158389,8.88252336 31.7977852,9.34299065 C32.3456376,9.21359813 33.0426846,9.23425234 33.3924161,8.90621495 L33.3924161,8.90621495 Z M33.9722819,34.1274299 C33.8997987,32.5340187 34.5026174,30.8895794 34.6971141,30.0457944 C33.8532886,29.7669626 33.3181208,30.0676636 32.5226174,30.4825701 C33.0191275,31.6859813 33.0414765,33.3632243 33.9722819,34.1274299 L33.9722819,34.1274299 Z M37.3065101,34.711215 C37.3210067,33.0728505 37.2285906,31.328785 38.3212752,30.7747664 C37.3699329,31.030514 37.0081208,30.9041589 35.8568456,30.7747664 C35.8000671,32.63 36.2989933,33.9257477 37.3065101,34.711215 L37.3065101,34.711215 Z M54.8474497,43.4588785 C53.3265101,43.7285981 51.6219463,44.5875701 51.0783221,45.3542056 C52.1818792,44.5687383 53.6605369,44.160514 54.8474497,43.4588785 L54.8474497,43.4588785 Z M53.2528188,31.3585514 L53.5427517,31.3585514 C53.7680537,30.9989252 53.0504698,30.9290654 53.1078523,31.2121495 C53.1966443,31.2206542 53.279396,31.2334112 53.2528188,31.3585514 L53.2528188,31.3585514 Z M67.0246309,34.5654206 C67.1557047,34.3090654 67.5579866,34.3242523 67.6044966,33.9816355 C67.1726174,33.7799533 66.7171812,33.8097196 66.5897315,34.2732243 C66.8748322,34.229486 66.8772483,34.4706542 67.0246309,34.5654206 L67.0246309,34.5654206 Z M68.3293289,34.5654206 C67.8877852,34.1523364 67.4232886,34.3740654 67.3145638,35.0034112 C67.6516107,35.2986449 67.927047,34.6498598 68.3293289,34.5654206 L68.3293289,34.5654206 Z M68.039396,37.4819159 C68.895906,36.9333645 69.7850336,36.4176168 70.3588591,35.5859813 C69.3259732,35.5701869 68.9762416,37.010514 68.1843624,36.751729 C68.512349,35.9158411 69.5826846,35.8253271 69.9239597,35.0034112 C68.8101342,35.3885514 68.1088591,36.191028 67.6044966,37.1897196 C67.7754362,37.2595794 67.9330872,37.3452336 68.039396,37.4819159 L68.039396,37.4819159 Z M69.344094,34.711215 C68.6416107,34.5131776 67.9016779,35.2154206 67.6044966,35.8775701 C67.6268456,36.049486 67.5791275,36.2918692 67.7494631,36.3155607 C68.2048993,35.7044393 68.7732886,35.2063084 69.344094,34.711215 L69.344094,34.711215 Z M68.4742953,33.5448598 C68.4990604,33.1797664 68.2520134,33.0880374 68.039396,32.9610748 C68.0146309,33.3267757 68.2622819,33.4178972 68.4742953,33.5448598 L68.4742953,33.5448598 Z M70.6487919,36.1691589 C69.7596644,36.5871028 68.9780537,37.1125701 68.4742953,37.9180841 C69.1320805,37.8233178 70.1655705,36.9181776 70.6487919,36.1691589 L70.6487919,36.1691589 Z M69.6340268,38.7940654 C69.8454362,37.6939252 71.2473826,37.7911215 71.3736242,36.6059346 C70.2591946,36.8458879 69.7602685,37.7048598 69.0541611,38.3560748 C69.2818792,38.3706542 69.5567114,38.336028 69.4896644,38.648271 C69.1586577,38.6063551 68.9442282,38.6822897 68.9097987,38.9386449 C69.3187248,39.0595327 69.2848993,38.7333178 69.6340268,38.7940654 L69.6340268,38.7940654 Z M71.8085235,37.4819159 C71.2951007,37.2680841 70.7043624,38.076028 70.3588591,38.5018692 C70.9157718,38.2364019 71.7771141,38.2752804 71.8085235,37.4819159 L71.8085235,37.4819159 Z M71.2286577,38.9386449 C71.2455705,39.0880841 70.6034899,39.2338785 71.0836913,39.3766355 C71.0063758,39.1664486 71.6490604,39.0206542 71.2286577,38.9386449 L71.2286577,38.9386449 Z M81.2313423,23.9224299 C81.2561074,24.3257944 81.0090604,24.4235981 80.796443,24.2134112 C80.9848993,24.5754673 80.4732886,24.921729 80.796443,24.9429907 C80.8562416,24.6034112 81.7175839,24.3270093 81.2313423,23.9224299 L81.2313423,23.9224299 Z M83.8407383,36.1691589 C83.6855034,35.6248598 84.2007383,35.7530374 84.1312752,35.293785 C84.0418792,35.2512617 83.5725503,34.931729 83.5514094,35.293785 C83.6691946,35.4790654 83.925302,36.7079907 83.8407383,36.1691589 L83.8407383,36.1691589 Z" id="Fill-52" sketch:type="MSShapeGroup"/>
            <path d="M18.4608725,17.9448598 C20.4499329,16.3496262 22.6479866,14.9633645 24.839396,13.571028 C25.1963758,14.3461682 23.7569799,14.5800467 23.2447651,14.8831776 C21.7467785,15.7713084 20.070604,16.9935514 18.8957718,18.0900467 C19.4804698,17.9983178 19.6278523,17.4655607 20.3454362,17.5074766 C19.9636913,18.0554206 19.057651,18.4186916 19.620604,19.111215 C19.0594631,18.9490187 19.1047651,19.6263551 18.7508054,19.2564019 C18.6034228,18.6556075 19.283557,17.978271 18.4608725,17.9448598" id="Fill-53" sketch:type="MSShapeGroup"/>
            <path d="M40.9306711,9.05140187 C42.3241611,8.91228972 44.0244966,8.40565421 45.7145638,8.03084112 C47.047047,7.735 48.3553691,7.28242991 49.4836913,6.86448598 C49.6703356,6.52065421 49.4643624,6.5935514 49.6286577,6.13551402 C50.1879866,6.11485981 50.2985235,5.64345794 50.9333557,5.69813084 C51.1314765,5.88462617 51.1314765,6.38640187 50.9333557,6.5728972 C50.9732215,7.085 51.4733557,6.20719626 51.5132215,6.71869159 C51.9505369,7.4203271 51.3096644,8.11771028 51.3688591,8.90621495 C53.1205369,8.93901869 51.6267785,6.39490654 51.2232886,5.26135514 C52.0634899,5.23827103 51.9910067,6.07537383 52.0930872,6.42771028 C52.425906,7.06373832 52.7883221,7.67182243 52.672953,8.75981308 C52.4585235,8.92869159 52.3075168,8.92869159 52.0930872,8.75981308 C50.804698,10.6126168 49.5060403,12.4016355 48.0340268,14.1542056 C46.5692617,15.898271 46.0171812,18.1526168 44.6997987,20.1317757 C45.248255,20.8036449 44.4678523,21.4773364 44.4098658,21.8807009 C44.3573154,22.2482243 44.8393289,22.2245327 44.5548322,22.6102804 C42.816443,23.1940654 41.3269128,24.0293458 39.4810067,24.505 C40.1261074,25.0711682 41.2133557,24.7461682 41.9454362,24.9429907 C41.7775168,25.5128037 41.0297315,25.2965421 40.4963758,25.3797664 C39.2538926,25.5741589 36.4077181,25.6598131 35.2769799,24.6514019 C34.9816107,24.7328037 34.9924832,25.09 34.6971141,24.7971963 C30.8663758,23.9357944 29.2566443,20.8400935 26.144094,19.2564019 C26.2703356,18.6926636 25.9012752,18.6264486 25.7091946,18.3816355 C26.5143624,17.2462617 27.3334228,16.2317757 28.3185906,15.1747664 C28.6278523,14.8430841 28.911745,14.4214953 29.1883893,14.1542056 C29.8999329,13.4683645 30.9581879,13.2630374 31.5078523,12.4046729 C34.2114765,11.2012617 36.8577181,9.78098131 39.9165101,9.19719626 C40.0071141,9.18018692 40.2106711,9.10485981 40.3508054,9.05140187 C42.097651,8.38742991 43.4989933,6.91672897 45.2796644,6.5728972 C43.8940268,7.46345794 42.2613423,8.10616822 40.9306711,9.05140187 L40.9306711,9.05140187 Z M32.377651,13.571028 C30.2955705,14.6845327 28.373557,15.9596262 27.3038255,18.0900467 C28.2720805,18.8907009 29.3563087,20.0655607 30.3481208,20.8601402 C30.5468456,21.0192991 30.7431544,21.3145327 30.9279866,21.4439252 C31.4160403,21.7859346 32.0532886,21.8831308 32.5226174,22.1722897 C33.0577852,22.5021495 33.3126846,23.0185047 33.9722819,23.1928505 C33.9148993,23.1776636 34.3733557,23.0282243 34.5521477,23.0470561 C35.2975168,23.1314953 36.4125503,23.4364486 37.1615436,23.4850467 C39.554698,23.6393458 41.3897315,22.8429439 43.1051678,22.0264953 C42.7246309,21.2792991 43.4657718,20.8564953 43.6850336,20.2775701 C43.1975839,20.3298131 43.4434228,19.6451869 43.2501342,19.4021963 C43.9550336,19.3335514 43.6306711,18.2297664 44.2648993,18.0900467 C44.1543624,17.3671495 44.708255,17.3124766 44.4098658,16.7791121 C44.9534899,16.8878505 44.7257718,16.2214486 45.134698,16.1959346 C46.3880537,13.4221963 48.4804027,11.4928505 50.3534899,9.34299065 C50.0218792,8.56724299 50.4688591,8.3588785 50.4984564,7.59345794 C49.9566443,7.74897196 50.085302,7.23140187 49.6286577,7.30186916 C49.4704027,7.74411215 49.1387919,7.93242991 48.7588591,8.17663551 C47.4209396,9.03560748 45.1739597,9.80102804 43.5406711,10.0725701 C41.4863758,10.412757 40.0216107,9.93102804 38.4662416,10.3635514 C37.8120805,10.5457944 37.2430872,11.0001869 36.5816779,11.2383178 C34.8022148,11.8804206 33.7228188,12.3135514 32.377651,12.9878505 C31.9892617,13.3626636 32.7666443,13.196215 32.377651,13.571028 L32.377651,13.571028 Z M32.2326846,23.1928505 C31.904698,23.217757 31.5954362,22.4918224 31.3628859,22.9012617 C31.6908725,22.8775701 32.0001342,23.6022897 32.2326846,23.1928505 L32.2326846,23.1928505 Z M39.3360403,25.2345794 C39.3565772,24.6307477 38.3273154,25.0827103 37.8863758,24.9429907 C37.6175839,24.5469159 36.9410738,24.3233645 36.4367114,24.2134112 C36.0887919,24.1386916 35.3736242,24.0354206 35.4219463,24.3592056 C36.6179195,25.0013084 37.7238926,24.9290187 39.3360403,25.2345794 L39.3360403,25.2345794 Z M45.4246309,8.75981308 C45.9869799,8.56845794 46.6459732,8.41233645 46.8742953,8.03084112 C45.4409396,8.5332243 43.5696644,8.59579439 42.3803356,9.34299065 C43.7363758,9.40130841 44.5524161,9.05686916 45.4246309,8.75981308 L45.4246309,8.75981308 Z M45.8595302,17.3616822 C45.9072483,16.0489252 46.8362416,15.6218692 47.1648322,14.5915888 C48.0231544,13.8510748 49.1683893,12.6233645 49.3387248,11.6757009 C47.3327517,13.9203271 45.1528188,16.9236916 44.5548322,19.693785 C45.0525503,18.98 45.2289262,17.9430374 45.8595302,17.3616822 L45.8595302,17.3616822 Z" id="Fill-54" sketch:type="MSShapeGroup"/>
            <path d="M45.5695973,52.351729 C46.3808054,52.2423832 47.4426846,51.1276636 48.1789933,50.4570093 C48.3034228,50.9223364 47.9506711,50.907757 47.8890604,51.1853738 C48.217047,51.5638318 48.2061745,50.7273364 48.6138926,51.1853738 C48.0213423,52.1925701 46.4230872,52.1895327 45.5695973,52.935514 C44.5983221,52.2508879 43.1172483,53.0509346 42.2353691,53.3735047 C42.6358389,52.3675234 44.2008725,52.5309346 45.2796644,52.2059346 C46.5148993,50.5991589 48.4900671,49.4850467 50.3534899,48.2700935 C51.817047,47.3151402 53.2165772,46.1165888 54.8474497,45.9379907 C54.2180537,46.5630841 53.0879195,46.7635514 52.2380537,47.2501402 C51.4220134,47.7148598 50.7116779,48.3691121 49.9185906,48.8526636 C48.3136913,49.8343458 46.5487248,50.701215 45.5695973,52.351729" id="Fill-55" sketch:type="MSShapeGroup"/>
            <path d="M61.8058389,20.423972 C61.1112081,20.6195794 60.8200671,21.4858411 60.0662416,21.8807009 C59.9877181,21.9220093 59.8826174,21.6668692 59.7763087,21.7349065 C58.4873154,22.5628972 57.1185906,24.3853271 55.7172483,24.505 C55.4248993,24.5299065 55.2521477,24.3081776 54.9930201,24.3592056 C53.888255,24.5797196 53.1730872,24.9903738 52.0930872,24.9429907 C51.1477852,24.9004673 50.2314765,24.9144393 49.1937584,24.6514019 C48.4622819,24.7984112 48.082953,25.3749065 47.3091946,25.088785 C46.9365101,24.7759346 47.430604,24.2735514 47.1648322,24.0688318 C47.0512752,23.7444393 46.462953,24.5493458 46.1494631,24.0688318 C46.0238255,23.5038785 46.5034228,23.5488318 46.5843624,23.1928505 C46.4116107,20.435514 47.4197315,17.329486 48.7588591,15.3205607 C49.2112752,14.6414019 49.6322819,14.130514 50.2085235,13.4252336 C50.5262416,13.0358411 50.7527517,12.5200935 51.0783221,12.1130841 C51.4238255,11.6805607 51.9789262,11.4843458 52.2380537,11.0925234 C52.875906,10.1284579 52.8577852,8.57392523 54.1226174,8.03084112 C54.3334228,7.36808411 54.5913423,6.75331776 54.9930201,6.28130841 C54.9525503,5.76981308 54.4524161,6.64700935 54.4131544,6.13551402 C54.5460403,5.73579439 54.8691946,5.52621495 55.282349,5.40654206 C55.0908725,4.85130841 54.1220134,5.92350467 54.1226174,5.11495327 C56.025302,5.06635514 57.5601342,4.18369159 59.0514765,4.5317757 C59.2218121,4.31490654 59.4157047,4.12051402 59.6313423,3.94859813 C62.6738255,3.56771028 65.4879866,4.38901869 68.3293289,4.96915888 C68.264698,5.98425234 67.3924832,5.47640187 66.5897315,5.55233645 C66.6120805,5.19028037 66.3620134,5.10098131 66.2997987,4.82336449 C64.0775839,4.68607477 61.5358389,3.68556075 59.7763087,4.38598131 C60.728255,4.51841121 61.6004698,4.53906542 62.6756376,4.82336449 C63.0942282,5.17934579 63.1262416,5.9253271 63.5454362,6.28130841 C63.9839597,6.08630841 64.3699329,6.49817757 64.8501342,6.5728972 C65.4426846,6.66523364 66.0690604,6.31654206 66.8796644,6.86448598 C67.207047,7.08621495 67.8757047,7.85285047 67.7494631,8.4682243 C67.2469128,8.58485981 67.1925503,8.25074766 66.734698,8.32242991 C66.4713423,8.80719626 67.095302,9.4614486 67.3145638,9.92616822 C66.1463758,13.1318224 64.2853691,15.9559813 62.5306711,19.111215 C64.6145638,17.8525234 65.5169799,14.1450935 66.8796644,11.6757009 C67.3085235,12.0717757 66.7546309,12.7564019 66.5897315,13.1342523 C66.1771812,14.0752336 65.676443,15.1522897 65.1400671,16.1959346 C63.8027517,18.7959346 61.5080537,21.1523364 59.6313423,23.3386449 C59.8820134,22.4717757 61.3244295,21.5435514 61.8058389,20.423972 L61.8058389,20.423972 Z M52.9628859,11.8214953 C50.1650336,14.5411682 47.0953691,17.9879907 47.8890604,23.0470561 C48.4163758,22.9547196 48.4586577,23.3495794 48.4689262,23.7766355 C49.59,23.5451869 51.0614094,23.7468692 52.2380537,24.0688318 C53.4279866,23.5142056 55.1446309,23.491729 56.4420805,23.0470561 C56.6009396,22.6248598 56.9053691,22.347243 57.1669128,22.0264953 C58.9608725,21.45 60.0046309,20.1190187 61.515906,19.2564019 C63.0815436,16.0865888 65.3532886,12.9532243 66.2997987,9.63457944 C65.4438926,9.16864486 65.8679195,8.59640187 65.8655034,7.59345794 C64.3143624,7.16093458 62.2425503,7.2514486 61.9508054,5.55233645 C60.6485235,5.26196262 58.4281208,5.51953271 57.0219463,5.40654206 C57.1077181,5.86579439 56.4885906,5.55172897 56.2971141,5.69813084 C55.596443,6.23453271 55.2581879,7.77570093 55.1373826,8.4682243 C55.2636242,8.25439252 55.3542282,8.00593458 55.7172483,8.03084112 C54.6414765,9.1364486 53.2032886,9.87635514 52.9628859,11.8214953 L52.9628859,11.8214953 Z M66.734698,7.59345794 C66.3318121,8.29023364 67.2100671,7.94640187 66.734698,7.59345794 L66.734698,7.59345794 Z" id="Fill-56" sketch:type="MSShapeGroup"/>
            <path d="M69.6340268,9.34299065 C68.6971812,9.09757009 68.6869128,8.11892523 69.1991275,7.44766355 C69.6654362,7.41668224 69.5518792,7.96766355 69.7789933,8.17663551 C69.1489933,7.94214953 70.0622819,8.55023364 69.6340268,9.34299065" id="Fill-57" sketch:type="MSShapeGroup"/>
            <path d="M35.2769799,57.746729 C35.7614094,56.7121963 36.6426846,55.3490187 37.8863758,55.5598131 C37.3469799,56.6210748 36.2059732,57.0772897 35.2769799,57.746729" id="Fill-58" sketch:type="MSShapeGroup"/>
            <path d="M60.9360403,45.7915888 C60.7965101,45.0869159 61.6481879,46.0740654 61.6614765,45.6457944 C64.0455705,45.3256542 65.0404027,45.616028 67.3145638,45.5 C67.3187919,45.6421495 67.4921477,45.6123832 67.6044966,45.6457944 C67.7597315,46.0242523 67.9566443,46.3601869 67.8944295,46.9579439 C69.1284564,47.5629907 69.345906,49.191028 70.2138926,50.1654206 C69.9614094,50.7370561 69.458255,51.0571963 68.9097987,51.3311682 C68.5624832,52.247243 67.7506711,52.6937383 67.3145638,53.5180841 C66.4973154,53.8230374 65.9422148,54.3284579 65.1400671,54.6844393 C64.2678523,55.0726168 63.4131544,55.0829439 62.5306711,55.4140187 C62.4056376,55.4601869 62.4056376,55.5573832 62.3857047,55.706215 C61.5304027,55.6229907 61.1232886,55.990514 60.6461074,56.288785 C60.2414094,55.9182243 59.8361074,55.548271 59.4863758,55.1224299 C57.7546309,55.0914486 56.9518792,53.8315421 55.1373826,53.5180841 C54.4868456,52.728972 54.8812752,52.3705607 55.1373826,51.3311682 C56.5767785,50.4011215 57.7443624,48.3199065 59.4863758,47.2501402 C60.0481208,47.3874299 60.0831544,46.6815421 60.5011409,47.1037383 C60.2069799,46.5642991 61.0538255,46.3255607 61.0810067,46.2283645 C61.1631544,45.9367757 60.6865772,45.9234112 60.9360403,45.7915888 L60.9360403,45.7915888 Z M56.8769799,52.7897196 C57.0974497,53.209486 56.8727517,53.2453271 57.0219463,53.8102804 C57.9992617,54.6249065 60.0354362,54.3758411 60.5011409,55.706215 C61.0616779,55.8671963 61.0169799,55.1898598 61.3709396,55.5598131 C61.4416107,54.3393925 60.1175839,54.5198131 59.6313423,54.1018692 C58.6002685,53.2155607 58.3731544,50.6185981 59.0514765,49.2906542 C58.5271812,49.4686449 57.9497315,49.9491589 57.4568456,50.311215 C56.9657718,50.6720561 56.2518121,50.9897664 56.2971141,51.4775701 C56.4891946,51.272243 57.2110067,50.8542991 57.4568456,51.1853738 C57.0116779,51.5273832 57.3444966,51.3281308 57.6018121,51.6233645 C57.0044295,52.2381308 55.9038926,52.3456542 55.4273154,53.0813084 C56.047651,53.1220093 56.1442953,52.6354206 56.8769799,52.7897196 L56.8769799,52.7897196 Z M56.7320134,51.6233645 C56.3792617,51.8098598 55.3397315,52.0613551 55.7172483,52.4975234 C55.9141611,52.1549065 56.9198658,51.868785 56.7320134,51.6233645 L56.7320134,51.6233645 Z M59.0514765,48.1242991 C58.3006711,48.8751402 57.3040268,49.3799533 56.7320134,50.311215 C57.576443,49.7499065 59.2085235,49.2074299 59.0514765,48.1242991 L59.0514765,48.1242991 Z M60.3561745,48.4164953 C59.9363758,50.0335981 59.1765101,51.4538785 60.0662416,53.0813084 C61.0532215,53.4324299 61.9278523,53.052757 61.9508054,54.2476636 C64.1222819,53.6614486 65.7688591,52.5473364 67.6044966,51.6233645 C67.904698,50.9527103 68.0418121,50.1186449 68.6192617,49.7286449 C68.6132215,48.0331776 66.7214094,48.2348598 66.5897315,46.6663551 C65.5091275,46.6505607 64.6000671,46.0430841 63.6904027,46.8121495 C62.9903356,46.4160748 62.347651,46.4361215 61.515906,46.9579439 C61.8994631,47.6401402 60.9142953,48.1953738 60.3561745,48.4164953 L60.3561745,48.4164953 Z M65.5749664,53.9560748 C64.9238255,54.0781776 64.3632886,54.2926168 63.9803356,54.6844393 C64.6574497,54.5884579 65.2530201,54.4104673 65.5749664,53.9560748 L65.5749664,53.9560748 Z M67.0246309,52.935514 C66.8089933,53.2119159 65.8528188,53.4968224 66.1548322,53.8102804 C66.2677852,53.4306075 67.4136242,53.3364486 67.0246309,52.935514 L67.0246309,52.935514 Z" id="Fill-59" sketch:type="MSShapeGroup"/>
        </g>
    </g>
</svg>